<svg width="139" height="137" version="1.1" xmlns="http://www.w3.org/2000/svg" desc="Created with imagetracer.js version 1.2.6" ><path fill="rgb(25,25,25)" stroke="rgb(25,25,25)" stroke-width="1" opacity="1" d="M 63 19 L 75.5 19 L 76 19.5 L 76 60.5 L 77.5 62 L 119 62 L 119 74.5 L 118.5 75 L 77.5 75 L 76 76.5 L 76 119 L 63.5 119 L 63 118.5 L 63 76.5 L 61.5 75 L 20 75 L 20 62.5 L 20.5 62 L 61.5 62 L 63 60.5 L 63 19 Z " /><path fill="rgb(254,254,254)" stroke="rgb(254,254,254)" stroke-width="1" opacity="1" d="M 58.5 0 L 62 0.5 L 58.5 1 L 58.5 0 Z " /><path fill="rgb(254,254,254)" stroke="rgb(254,254,254)" stroke-width="1" opacity="1" d="M 77.5 0 L 81 0.5 L 77.5 1 L 77.5 0 Z " /><path fill="rgb(254,254,254)" stroke="rgb(254,254,254)" stroke-width="1" opacity="1" d="M 86.5 0 L 85.5 2 L 84 1.5 L 86.5 0 Z " /><path fill="rgb(254,254,254)" stroke="rgb(254,254,254)" stroke-width="1" opacity="1" d="M 49.5 1 L 50.5 3 Q 47.7 3.7 49.5 1 Z " /><path fill="rgb(254,254,254)" stroke="rgb(254,254,254)" stroke-width="1" opacity="1" d="M 53.5 1 Q 55.8 0.3 55 2.5 L 53.5 1 Z " /><path fill="rgb(254,254,254)" stroke="rgb(254,254,254)" stroke-width="1" opacity="1" d="M 105.5 9 L 106.5 11 L 105.5 9 Z " /><path fill="rgb(254,254,254)" stroke="rgb(254,254,254)" stroke-width="1" opacity="1" d="M 30.5 11 L 29.5 13 L 30.5 11 Z " /><path fill="rgb(254,254,254)" stroke="rgb(254,254,254)" stroke-width="1" opacity="1" d="M 108.5 11 L 109.5 13 L 108.5 11 Z " /><path fill="rgb(254,254,254)" stroke="rgb(254,254,254)" stroke-width="1" opacity="1" d="M 112.5 11 L 114.5 14 L 112.5 11 Z " /><path fill="rgb(254,254,254)" stroke="rgb(254,254,254)" stroke-width="1" opacity="1" d="M 111.5 13 L 124 23.5 L 122.5 24 L 119 22 L 114.5 16 L 111 15 L 111.5 13 Z " /><path fill="rgb(254,254,254)" stroke="rgb(254,254,254)" stroke-width="1" opacity="1" d="M 62.5 19 L 63 60.5 L 61.5 62 L 20.5 62 L 20.5 61 L 22.5 60 L 23.5 61 L 62 61 L 61 57.5 L 62 56.5 L 62.5 19 Z " /><path fill="rgb(254,254,254)" stroke="rgb(254,254,254)" stroke-width="1" opacity="1" d="M 76 19 L 78 19.5 L 77 20.5 L 77 61 L 119 61.5 L 77.5 62 L 76 60.5 L 76 19 Z " /><path fill="rgb(254,254,254)" stroke="rgb(254,254,254)" stroke-width="1" opacity="1" d="M 124.5 26 L 127 27 L 126.5 29 L 124.5 26 Z " /><path fill="rgb(254,254,254)" stroke="rgb(254,254,254)" stroke-width="1" opacity="1" d="M 131.5 37 L 134 38.5 L 132 39.5 L 131.5 37 Z " /><path fill="rgb(254,254,254)" stroke="rgb(254,254,254)" stroke-width="1" opacity="1" d="M 134.5 40 L 133.5 42 L 134.5 40 Z " /><path fill="rgb(254,254,254)" stroke="rgb(254,254,254)" stroke-width="1" opacity="1" d="M 137.5 48 L 137 49.5 L 136.5 51 L 136 49.5 L 137.5 48 Z " /><path fill="rgb(254,254,254)" stroke="rgb(254,254,254)" stroke-width="1" opacity="1" d="M 137.5 52 L 138 54.5 L 137 54.5 L 137.5 52 Z " /><path fill="rgb(254,254,254)" stroke="rgb(254,254,254)" stroke-width="1" opacity="1" d="M 138.5 57 L 139 60.5 L 138 60.5 L 138.5 57 Z " /><path fill="rgb(254,254,254)" stroke="rgb(254,254,254)" stroke-width="1" opacity="1" d="M 19.5 75 L 61.5 75 L 63 76.5 L 62.5 119 L 62 76 L 19.5 76 L 19.5 75 Z " /><path fill="rgb(254,254,254)" stroke="rgb(254,254,254)" stroke-width="1" opacity="1" d="M 77.5 75 L 119 75.5 L 79.5 76 L 78.5 77 L 77 76.5 L 76.5 119 L 76 76.5 L 77.5 75 Z " /><path fill="rgb(254,254,254)" stroke="rgb(254,254,254)" stroke-width="1" opacity="1" d="M 138.5 76 L 139 79.5 L 138 79.5 L 138.5 76 Z " /><path fill="rgb(254,254,254)" stroke="rgb(254,254,254)" stroke-width="1" opacity="1" d="M 137.5 82 L 138 84.5 L 137 84.5 L 137.5 82 Z " /><path fill="rgb(254,254,254)" stroke="rgb(254,254,254)" stroke-width="1" opacity="1" d="M 129.5 93 L 130.5 95 L 129.5 93 Z " /><path fill="rgb(254,254,254)" stroke="rgb(254,254,254)" stroke-width="1" opacity="1" d="M 130.5 98 L 132 100.5 L 130 101.5 L 131 99.5 L 130.5 98 Z " /><path fill="rgb(254,254,254)" stroke="rgb(254,254,254)" stroke-width="1" opacity="1" d="M 9.5 104 L 11.5 107 L 9 106.5 L 9.5 104 Z " /><path fill="rgb(254,254,254)" stroke="rgb(254,254,254)" stroke-width="1" opacity="1" d="M 126.5 108 L 124.5 111 L 126.5 108 Z " /><path fill="rgb(254,254,254)" stroke="rgb(254,254,254)" stroke-width="1" opacity="1" d="M 13.5 109 Q 16.5 110.5 13.5 112 L 13.5 109 Z " /><path fill="rgb(254,254,254)" stroke="rgb(254,254,254)" stroke-width="1" opacity="1" d="M 16.5 113 L 22.5 120 L 16.5 113 Z " /><path fill="rgb(254,254,254)" stroke="rgb(254,254,254)" stroke-width="1" opacity="1" d="M 122.5 113 L 115.5 121 L 122.5 113 Z " /><path fill="rgb(254,254,254)" stroke="rgb(254,254,254)" stroke-width="1" opacity="1" d="M 25.5 121 L 27.5 124 L 25.5 121 Z " /><path fill="rgb(254,254,254)" stroke="rgb(254,254,254)" stroke-width="1" opacity="1" d="M 113.5 121 L 111.5 124 L 111 122 L 113.5 121 Z " /><path fill="rgb(254,254,254)" stroke="rgb(254,254,254)" stroke-width="1" opacity="1" d="M 29.5 124 L 30.5 126 L 29.5 124 Z " /><path fill="rgb(254,254,254)" stroke="rgb(254,254,254)" stroke-width="1" opacity="1" d="M 33.5 124 L 33 125.5 Q 32.3 127.8 34.5 127 L 36 126.5 L 35.5 129 L 32 128 L 33.5 124 Z " /><path fill="rgb(254,254,254)" stroke="rgb(254,254,254)" stroke-width="1" opacity="1" d="M 109.5 124 L 108.5 126 L 109.5 124 Z " /><path fill="rgb(254,254,254)" stroke="rgb(254,254,254)" stroke-width="1" opacity="1" d="M 106.5 126 L 105.5 128 L 106.5 126 Z " /><path fill="rgb(254,254,254)" stroke="rgb(254,254,254)" stroke-width="1" opacity="1" d="M 46.5 132 L 47.5 134 L 45.5 135 L 46 133.5 L 46.5 132 Z " /><path fill="rgb(254,254,254)" stroke="rgb(254,254,254)" stroke-width="1" opacity="1" d="M 91.5 132 L 93 134.5 L 91 133.5 L 91.5 132 Z " /><path fill="rgb(254,254,254)" stroke="rgb(254,254,254)" stroke-width="1" opacity="1" d="M 87.5 134 L 90 134.5 L 87.5 135 L 87.5 134 Z " /><path fill="rgb(254,254,254)" stroke="rgb(254,254,254)" stroke-width="1" opacity="1" d="M 58.5 136 L 62 136.5 L 58.5 137 L 58.5 136 Z " /><path fill="rgb(254,254,254)" stroke="rgb(254,254,254)" stroke-width="1" opacity="1" d="M 77.5 136 L 81 136.5 L 77.5 137 L 77.5 136 Z " /><path fill="rgb(255,255,255)" stroke="rgb(255,255,255)" stroke-width="1" opacity="1" d="M 0 0 L 57.5 0 L 61.5 1 L 62.5 0 L 71.5 0 L 73.5 0 L 80.5 1 L 85.5 0 L 87.5 0 L 139 0 L 139 56.5 L 138 60.5 L 139 61.5 L 139 75.5 L 138 79.5 Q 140.5 81 139 86.5 L 139 88.5 L 139 137 L 81.5 137 L 77.5 136 L 76.5 137 L 62.5 137 L 58.5 136 L 57.5 137 L 0 137 L 0 0 Z M 50 1 Q 48 4 51 3 L 50 1 Z M 54 1 L 55 3 Q 56 0 54 1 Z M 112 13 Q 110 16 113 15 L 112 13 Z M 62 19 L 62 57 L 61 58 L 62 61 L 24 61 L 23 60 L 20 61 L 20 72 L 19 73 L 20 75 L 20 76 L 62 76 L 62 119 L 63 119 L 72 119 L 74 119 L 77 119 L 77 77 L 79 77 L 80 76 L 119 76 L 119 61 L 77 61 L 77 21 L 78 20 L 62 19 Z M 120 20 Q 118 23 121 22 L 120 20 Z M 126 27 L 127 29 Q 128 26 126 27 Z M 132 38 L 132 40 L 134 39 L 132 38 Z M 138 52 L 137 55 L 138 55 L 138 52 Z M 138 82 L 137 85 L 138 85 L 138 82 Z M 111 122 L 111 124 L 113 123 L 111 122 Z M 33 125 L 32 128 L 35 128 L 33 127 L 33 125 Z M 47 132 Q 45 135 48 134 L 47 132 Z M 92 132 L 91 134 L 93 135 L 92 132 Z M 88 134 L 88 135 L 90 135 L 88 134 Z " /></svg>