<svg width="442" height="414" version="1.1" xmlns="http://www.w3.org/2000/svg" desc="Created with imagetracer.js version 1.2.6" ><path fill="rgb(254,254,254)" stroke="rgb(254,254,254)" stroke-width="1" opacity="1" d="M 230.5 0 L 231.5 2 Q 228.7 2.7 230.5 0 Z " /><path fill="rgb(254,254,254)" stroke="rgb(254,254,254)" stroke-width="1" opacity="1" d="M 205 3 Q 208 2 207 5 Q 204 6 205 3 Z " /><path fill="rgb(254,254,254)" stroke="rgb(254,254,254)" stroke-width="1" opacity="1" d="M 235.5 11 Q 237.8 10.3 237 12.5 L 235.5 11 Z " /><path fill="rgb(254,254,254)" stroke="rgb(254,254,254)" stroke-width="1" opacity="1" d="M 199 17 Q 202 16 201 19 Q 198 20 199 17 Z " /><path fill="rgb(254,254,254)" stroke="rgb(254,254,254)" stroke-width="1" opacity="1" d="M 255.5 19 L 256 20.5 L 255 22.5 L 255.5 24 L 253.5 23 L 251.5 24 L 251.5 23 Q 254.1 23.7 253 21 L 255 21 L 255.5 19 Z " /><path fill="rgb(254,254,254)" stroke="rgb(254,254,254)" stroke-width="1" opacity="1" d="M 193 23 Q 196 21.8 195 25.5 L 193 24.5 L 193 23 Z " /><path fill="rgb(254,254,254)" stroke="rgb(254,254,254)" stroke-width="1" opacity="1" d="M 197 25 Q 200 24 199 27 Q 196 28 197 25 Z " /><path fill="rgb(254,254,254)" stroke="rgb(254,254,254)" stroke-width="1" opacity="1" d="M 190 36 L 193 37.5 Q 193.8 39.8 191.5 39 L 190 36 Z " /><path fill="rgb(254,254,254)" stroke="rgb(254,254,254)" stroke-width="1" opacity="1" d="M 179 37 Q 182 36 181 39 Q 178 40 179 37 Z " /><path fill="rgb(254,254,254)" stroke="rgb(254,254,254)" stroke-width="1" opacity="1" d="M 267 51 Q 270.7 49.8 269 55 Q 265.3 56.2 267 51 Z " /><path fill="rgb(254,254,254)" stroke="rgb(254,254,254)" stroke-width="1" opacity="1" d="M 176 54 Q 179 53 178 56 Q 175 57 176 54 Z " /><path fill="rgb(254,254,254)" stroke="rgb(254,254,254)" stroke-width="1" opacity="1" d="M 263.5 64 L 265 66.5 L 264 66.5 L 263.5 64 Z " /><path fill="rgb(254,254,254)" stroke="rgb(254,254,254)" stroke-width="1" opacity="1" d="M 165 67 Q 168 66 167 69 Q 164 70 165 67 Z " /><path fill="rgb(254,254,254)" stroke="rgb(254,254,254)" stroke-width="1" opacity="1" d="M 173 67 Q 176 66 175 69 Q 172 70 173 67 Z " /><path fill="rgb(254,254,254)" stroke="rgb(254,254,254)" stroke-width="1" opacity="1" d="M 271.5 75 L 270.5 77 L 271.5 75 Z " /><path fill="rgb(254,254,254)" stroke="rgb(254,254,254)" stroke-width="1" opacity="1" d="M 271.5 81 Q 273.8 80.3 273 82.5 L 271.5 81 Z " /><path fill="rgb(254,254,254)" stroke="rgb(254,254,254)" stroke-width="1" opacity="1" d="M 277 87 Q 280 86 279 89 Q 276 90 277 87 Z " /><path fill="rgb(254,254,254)" stroke="rgb(254,254,254)" stroke-width="1" opacity="1" d="M 282 98 Q 285 97 284 100 Q 281 101 282 98 Z " /><path fill="rgb(254,254,254)" stroke="rgb(254,254,254)" stroke-width="1" opacity="1" d="M 155 103 L 157 103.5 L 155 104.5 L 155 103 Z " /><path fill="rgb(254,254,254)" stroke="rgb(254,254,254)" stroke-width="1" opacity="1" d="M 129 115 Q 132 114 131 117 Q 128 118 129 115 Z " /><path fill="rgb(254,254,254)" stroke="rgb(254,254,254)" stroke-width="1" opacity="1" d="M 290.5 117 L 289.5 119 L 290.5 117 Z " /><path fill="rgb(254,254,254)" stroke="rgb(254,254,254)" stroke-width="1" opacity="1" d="M 133 123 Q 136 122 135 125 Q 132 126 133 123 Z " /><path fill="rgb(254,254,254)" stroke="rgb(254,254,254)" stroke-width="1" opacity="1" d="M 146.5 125 L 145.5 127 L 146.5 125 Z " /><path fill="rgb(254,254,254)" stroke="rgb(254,254,254)" stroke-width="1" opacity="1" d="M 294 125 L 296 125.5 L 294 126.5 L 294 125 Z " /><path fill="rgb(254,254,254)" stroke="rgb(254,254,254)" stroke-width="1" opacity="1" d="M 385 130 Q 388.7 128.8 387 134 Q 383.3 135.2 385 130 Z " /><path fill="rgb(254,254,254)" stroke="rgb(254,254,254)" stroke-width="1" opacity="1" d="M 17 131 Q 20 130 19 133 Q 16 134 17 131 Z " /><path fill="rgb(254,254,254)" stroke="rgb(254,254,254)" stroke-width="1" opacity="1" d="M 53 131 Q 56 130 55 133 Q 52 134 53 131 Z " /><path fill="rgb(254,254,254)" stroke="rgb(254,254,254)" stroke-width="1" opacity="1" d="M 332.5 131 L 333 133 L 331 132.5 L 332.5 131 Z " /><path fill="rgb(254,254,254)" stroke="rgb(254,254,254)" stroke-width="1" opacity="1" d="M 33 132 L 35 132 L 35 137 L 33 137 L 33 132 Z " /><path fill="rgb(254,254,254)" stroke="rgb(254,254,254)" stroke-width="1" opacity="1" d="M 88 133 Q 93.2 131.3 92 135 Q 86.8 136.7 88 133 Z " /><path fill="rgb(254,254,254)" stroke="rgb(254,254,254)" stroke-width="1" opacity="1" d="M 96 133 Q 100.1 131.7 99 135 Q 94.9 136.3 96 133 Z " /><path fill="rgb(254,254,254)" stroke="rgb(254,254,254)" stroke-width="1" opacity="1" d="M 49.5 135 Q 52.1 134.3 51 137 L 48 136.5 L 49.5 135 Z " /><path fill="rgb(254,254,254)" stroke="rgb(254,254,254)" stroke-width="1" opacity="1" d="M 381.5 136 L 383 139 Q 379.5 140.1 381.5 136 Z " /><path fill="rgb(254,254,254)" stroke="rgb(254,254,254)" stroke-width="1" opacity="1" d="M 18 137 Q 23.2 135.3 22 139 Q 16.8 140.7 18 137 Z " /><path fill="rgb(254,254,254)" stroke="rgb(254,254,254)" stroke-width="1" opacity="1" d="M 386.5 139 L 388.5 139 L 390 139.5 L 387.5 141 L 386.5 139 Z " /><path fill="rgb(254,254,254)" stroke="rgb(254,254,254)" stroke-width="1" opacity="1" d="M 439 157 Q 443.1 155.7 442 159 L 439.5 160 L 439 157 Z " /><path fill="rgb(254,254,254)" stroke="rgb(254,254,254)" stroke-width="1" opacity="1" d="M 1.5 164 Q 3.8 163.3 3 165.5 L 1.5 164 Z " /><path fill="rgb(254,254,254)" stroke="rgb(254,254,254)" stroke-width="1" opacity="1" d="M 439.5 164 L 442 165 Q 443 168 440 167 L 439.5 164 Z " /><path fill="rgb(254,254,254)" stroke="rgb(254,254,254)" stroke-width="1" opacity="1" d="M 1.5 167 L 4 172 Q 1 173.3 2 169.5 L 1.5 167 Z " /><path fill="rgb(254,254,254)" stroke="rgb(254,254,254)" stroke-width="1" opacity="1" d="M 436.5 174 L 439 175.5 L 437.5 176 L 436.5 174 Z " /><path fill="rgb(254,254,254)" stroke="rgb(254,254,254)" stroke-width="1" opacity="1" d="M 6.5 175 L 9 175.5 L 6.5 176 L 6.5 175 Z " /><path fill="rgb(254,254,254)" stroke="rgb(254,254,254)" stroke-width="1" opacity="1" d="M 430.5 179 L 431 181 L 429 180.5 L 430.5 179 Z " /><path fill="rgb(254,254,254)" stroke="rgb(254,254,254)" stroke-width="1" opacity="1" d="M 12.5 180 L 15 185 Q 11.7 186.3 13 181.5 L 12.5 180 Z " /><path fill="rgb(254,254,254)" stroke="rgb(254,254,254)" stroke-width="1" opacity="1" d="M 431.5 182 L 430 184.5 L 431 185.5 L 430.5 187 L 429 184.5 L 431.5 182 Z " /><path fill="rgb(254,254,254)" stroke="rgb(254,254,254)" stroke-width="1" opacity="1" d="M 11.5 183 L 11 184.5 L 9.5 187 L 9 185.5 L 11.5 183 Z " /><path fill="rgb(254,254,254)" stroke="rgb(254,254,254)" stroke-width="1" opacity="1" d="M 425.5 183 L 428 186.5 L 427 186.5 L 425.5 183 Z " /><path fill="rgb(254,254,254)" stroke="rgb(254,254,254)" stroke-width="1" opacity="1" d="M 3 185 Q 6 184 5 187 Q 2 188 3 185 Z " /><path fill="rgb(254,254,254)" stroke="rgb(254,254,254)" stroke-width="1" opacity="1" d="M 16.5 185 Q 18.8 184.3 18 186.5 L 16.5 185 Z " /><path fill="rgb(254,254,254)" stroke="rgb(254,254,254)" stroke-width="1" opacity="1" d="M 20.5 190 L 21.5 192 L 20.5 190 Z " /><path fill="rgb(254,254,254)" stroke="rgb(254,254,254)" stroke-width="1" opacity="1" d="M 36.5 203 L 39 204.5 L 37.5 205 L 36.5 203 Z " /><path fill="rgb(254,254,254)" stroke="rgb(254,254,254)" stroke-width="1" opacity="1" d="M 60.5 225 L 62 227.5 L 60 226.5 L 60.5 225 Z " /><path fill="rgb(254,254,254)" stroke="rgb(254,254,254)" stroke-width="1" opacity="1" d="M 66.5 231 L 65.5 233 L 66.5 231 Z " /><path fill="rgb(254,254,254)" stroke="rgb(254,254,254)" stroke-width="1" opacity="1" d="M 368.5 238 L 369.5 240 L 368.5 238 Z " /><path fill="rgb(254,254,254)" stroke="rgb(254,254,254)" stroke-width="1" opacity="1" d="M 366.5 245 L 367.5 247 L 366.5 245 Z " /><path fill="rgb(254,254,254)" stroke="rgb(254,254,254)" stroke-width="1" opacity="1" d="M 358.5 249 Q 360.8 248.3 360 250.5 L 357 250.5 L 358.5 249 Z " /><path fill="rgb(254,254,254)" stroke="rgb(254,254,254)" stroke-width="1" opacity="1" d="M 86.5 250 L 87.5 252 L 86.5 250 Z " /><path fill="rgb(254,254,254)" stroke="rgb(254,254,254)" stroke-width="1" opacity="1" d="M 90.5 254 L 89.5 256 L 90.5 254 Z " /><path fill="rgb(254,254,254)" stroke="rgb(254,254,254)" stroke-width="1" opacity="1" d="M 83 257 Q 86 256 85 259 Q 82 260 83 257 Z " /><path fill="rgb(254,254,254)" stroke="rgb(254,254,254)" stroke-width="1" opacity="1" d="M 91 257 L 95 257.5 L 91 259 L 91 257 Z " /><path fill="rgb(254,254,254)" stroke="rgb(254,254,254)" stroke-width="1" opacity="1" d="M 340.5 266 L 341.5 268 L 340.5 266 Z " /><path fill="rgb(254,254,254)" stroke="rgb(254,254,254)" stroke-width="1" opacity="1" d="M 97 269 L 100 270.5 L 97 271 L 97 269 Z " /><path fill="rgb(254,254,254)" stroke="rgb(254,254,254)" stroke-width="1" opacity="1" d="M 342 275 Q 346.1 273.7 345 277 L 341.5 278 L 342 276.5 L 342 275 Z " /><path fill="rgb(254,254,254)" stroke="rgb(254,254,254)" stroke-width="1" opacity="1" d="M 97.5 280 L 99 283.5 L 97 282.5 L 97.5 280 Z " /><path fill="rgb(254,254,254)" stroke="rgb(254,254,254)" stroke-width="1" opacity="1" d="M 343.5 287 L 344.5 289 L 343.5 287 Z " /><path fill="rgb(254,254,254)" stroke="rgb(254,254,254)" stroke-width="1" opacity="1" d="M 90.5 317 Q 93.5 318.5 90.5 320 L 90.5 317 Z " /><path fill="rgb(254,254,254)" stroke="rgb(254,254,254)" stroke-width="1" opacity="1" d="M 88.5 321 L 91 324.5 L 89 325 L 88.5 321 Z " /><path fill="rgb(254,254,254)" stroke="rgb(254,254,254)" stroke-width="1" opacity="1" d="M 349.5 322 L 350.5 324 L 349.5 322 Z " /><path fill="rgb(254,254,254)" stroke="rgb(254,254,254)" stroke-width="1" opacity="1" d="M 218.5 351 L 218 352.5 L 217.5 354 L 216.5 352 L 218.5 351 Z " /><path fill="rgb(254,254,254)" stroke="rgb(254,254,254)" stroke-width="1" opacity="1" d="M 81 353 Q 84 352 83 355 Q 80 356 81 353 Z " /><path fill="rgb(254,254,254)" stroke="rgb(254,254,254)" stroke-width="1" opacity="1" d="M 223.5 353 Q 225.8 352.3 225 354.5 Q 223.5 357.5 222 354.5 L 223.5 353 Z " /><path fill="rgb(254,254,254)" stroke="rgb(254,254,254)" stroke-width="1" opacity="1" d="M 81.5 361 L 84 361.5 Q 81.9 364.8 81.5 361 Z " /><path fill="rgb(254,254,254)" stroke="rgb(254,254,254)" stroke-width="1" opacity="1" d="M 243 361 Q 246 359.8 245 363.5 L 243 362.5 L 243 361 Z " /><path fill="rgb(254,254,254)" stroke="rgb(254,254,254)" stroke-width="1" opacity="1" d="M 189.5 365 L 190 367.5 L 189 367.5 L 189.5 365 Z " /><path fill="rgb(254,254,254)" stroke="rgb(254,254,254)" stroke-width="1" opacity="1" d="M 186.5 367 L 187 370.5 L 185 371.5 Q 184.3 367.8 186.5 367 Z " /><path fill="rgb(254,254,254)" stroke="rgb(254,254,254)" stroke-width="1" opacity="1" d="M 259.5 369 L 260.5 371 Q 257.7 371.7 259.5 369 Z " /><path fill="rgb(254,254,254)" stroke="rgb(254,254,254)" stroke-width="1" opacity="1" d="M 360 370 Q 363 369 362 372 Q 359 373 360 370 Z " /><path fill="rgb(254,254,254)" stroke="rgb(254,254,254)" stroke-width="1" opacity="1" d="M 263.5 371 L 264 372.5 L 262 373.5 L 263.5 371 Z " /><path fill="rgb(254,254,254)" stroke="rgb(254,254,254)" stroke-width="1" opacity="1" d="M 174.5 375 L 175 376.5 L 173 377.5 L 174.5 375 Z " /><path fill="rgb(254,254,254)" stroke="rgb(254,254,254)" stroke-width="1" opacity="1" d="M 167 377 L 169 377 L 171 381 L 169 381 L 167 377 Z " /><path fill="rgb(254,254,254)" stroke="rgb(254,254,254)" stroke-width="1" opacity="1" d="M 272.5 380 L 275 381 Q 276 384 273 383 L 272.5 380 Z " /><path fill="rgb(254,254,254)" stroke="rgb(254,254,254)" stroke-width="1" opacity="1" d="M 277 381 Q 280 380 279 383 Q 276 384 277 381 Z " /><path fill="rgb(254,254,254)" stroke="rgb(254,254,254)" stroke-width="1" opacity="1" d="M 281 381 Q 284 380 283 383 Q 280 384 281 381 Z " /><path fill="rgb(254,254,254)" stroke="rgb(254,254,254)" stroke-width="1" opacity="1" d="M 285 385 Q 288 384 287 387 Q 284 388 285 385 Z " /><path fill="rgb(254,254,254)" stroke="rgb(254,254,254)" stroke-width="1" opacity="1" d="M 361 387 Q 364 386 363 389 Q 360 390 361 387 Z " /><path fill="rgb(254,254,254)" stroke="rgb(254,254,254)" stroke-width="1" opacity="1" d="M 310.5 396 L 312 398.5 L 309 399 L 310.5 396 Z " /><path fill="rgb(254,254,254)" stroke="rgb(254,254,254)" stroke-width="1" opacity="1" d="M 313.5 397 L 314.5 399 Q 311.7 399.7 313.5 397 Z " /><path fill="rgb(254,254,254)" stroke="rgb(254,254,254)" stroke-width="1" opacity="1" d="M 131 401 Q 134 400 133 403 Q 130 404 131 401 Z " /><path fill="rgb(254,254,254)" stroke="rgb(254,254,254)" stroke-width="1" opacity="1" d="M 81.5 404 L 84 405.5 L 82.5 406 L 81.5 404 Z " /><path fill="rgb(254,254,254)" stroke="rgb(254,254,254)" stroke-width="1" opacity="1" d="M 82.5 408 L 86 409.5 L 84.5 411 L 82.5 408 Z " /><path fill="rgb(254,254,254)" stroke="rgb(254,254,254)" stroke-width="1" opacity="1" d="M 363 412 Q 366 411 365 414 Q 362 415 363 412 Z " /><path fill="rgb(255,255,254)" stroke="rgb(255,255,254)" stroke-width="1" opacity="1" d="M 226.5 0 Q 228.8 -0.8 228 1.5 L 226.5 0 Z " /><path fill="rgb(255,255,254)" stroke="rgb(255,255,254)" stroke-width="1" opacity="1" d="M 214.5 2 Q 217.1 1.3 216 4 Q 210.6 4.7 208 9.5 L 205.5 14 L 205 11 Q 208 12.3 207 8.5 L 214.5 2 Z " /><path fill="rgb(255,255,254)" stroke="rgb(255,255,254)" stroke-width="1" opacity="1" d="M 229 3 L 233 5.5 Q 232.3 7.8 234.5 7 L 236 9.5 L 234 10.5 L 229 3 Z " /><path fill="rgb(255,255,254)" stroke="rgb(255,255,254)" stroke-width="1" opacity="1" d="M 235.5 12 L 236.5 14 L 235.5 12 Z " /><path fill="rgb(255,255,254)" stroke="rgb(255,255,254)" stroke-width="1" opacity="1" d="M 203 15 Q 205.7 13.9 205 16.5 L 203 17.5 L 203 15 Z " /><path fill="rgb(255,255,254)" stroke="rgb(255,255,254)" stroke-width="1" opacity="1" d="M 237 15 Q 240 13.8 239 17.5 L 237 16.5 L 237 15 Z " /><path fill="rgb(255,255,254)" stroke="rgb(255,255,254)" stroke-width="1" opacity="1" d="M 201 19 Q 203.7 17.9 203 20.5 L 201 21.5 L 201 19 Z " /><path fill="rgb(255,255,254)" stroke="rgb(255,255,254)" stroke-width="1" opacity="1" d="M 239.5 19 L 243 25.5 L 241 24.5 L 239.5 19 Z " /><path fill="rgb(255,255,254)" stroke="rgb(255,255,254)" stroke-width="1" opacity="1" d="M 199 23 Q 201.7 21.9 201 24.5 L 199 25.5 L 199 23 Z " /><path fill="rgb(255,255,254)" stroke="rgb(255,255,254)" stroke-width="1" opacity="1" d="M 197 27 Q 199.7 25.9 199 28.5 L 197 29.5 L 197 27 Z " /><path fill="rgb(255,255,254)" stroke="rgb(255,255,254)" stroke-width="1" opacity="1" d="M 243 27 Q 246 25.8 245 29.5 L 243 28.5 L 243 27 Z " /><path fill="rgb(255,255,254)" stroke="rgb(255,255,254)" stroke-width="1" opacity="1" d="M 195 31 Q 198 30 197 33 Q 194 34 195 31 Z " /><path fill="rgb(255,255,254)" stroke="rgb(255,255,254)" stroke-width="1" opacity="1" d="M 245 31 Q 248 29.8 247 33.5 L 245 32.5 L 245 31 Z " /><path fill="rgb(255,255,254)" stroke="rgb(255,255,254)" stroke-width="1" opacity="1" d="M 193 35 Q 195.7 33.9 195 36.5 L 193 37.5 L 193 35 Z " /><path fill="rgb(255,255,254)" stroke="rgb(255,255,254)" stroke-width="1" opacity="1" d="M 247 35 Q 250 33.8 249 37.5 L 247 36.5 L 247 35 Z " /><path fill="rgb(255,255,254)" stroke="rgb(255,255,254)" stroke-width="1" opacity="1" d="M 191 39 Q 193.7 37.9 193 40.5 L 191 41.5 L 191 39 Z " /><path fill="rgb(255,255,254)" stroke="rgb(255,255,254)" stroke-width="1" opacity="1" d="M 249 39 L 251 39.5 L 250.5 42 L 249 39 Z " /><path fill="rgb(255,255,254)" stroke="rgb(255,255,254)" stroke-width="1" opacity="1" d="M 189.5 43 Q 192.5 44.5 189.5 46 L 189.5 43 Z " /><path fill="rgb(255,255,254)" stroke="rgb(255,255,254)" stroke-width="1" opacity="1" d="M 251 43 L 253 43 L 253 47 Q 256 45.8 255 49.5 L 253 48.5 L 251 43 Z " /><path fill="rgb(255,255,254)" stroke="rgb(255,255,254)" stroke-width="1" opacity="1" d="M 184 44 Q 187 43 186 46 Q 183 47 184 44 Z " /><path fill="rgb(255,255,254)" stroke="rgb(255,255,254)" stroke-width="1" opacity="1" d="M 254 44 Q 257 43 256 46 Q 253 47 254 44 Z " /><path fill="rgb(255,255,254)" stroke="rgb(255,255,254)" stroke-width="1" opacity="1" d="M 187 47 Q 189.7 45.9 189 48.5 L 187 49.5 L 187 47 Z " /><path fill="rgb(255,255,254)" stroke="rgb(255,255,254)" stroke-width="1" opacity="1" d="M 266 48 Q 269 47 268 50 Q 265 51 266 48 Z " /><path fill="rgb(255,255,254)" stroke="rgb(255,255,254)" stroke-width="1" opacity="1" d="M 270 48 Q 273 47 272 50 Q 269 51 270 48 Z " /><path fill="rgb(255,255,254)" stroke="rgb(255,255,254)" stroke-width="1" opacity="1" d="M 186.5 51 L 186 52.5 L 185.5 54 L 185 52.5 L 186.5 51 Z " /><path fill="rgb(255,255,254)" stroke="rgb(255,255,254)" stroke-width="1" opacity="1" d="M 255.5 51 Q 257.8 50.3 257 52.5 L 267.5 73 L 270 72 L 269 76.5 L 269.5 78 L 261 63.5 L 258 54 Q 255.3 55.1 256 52.5 L 255.5 51 Z " /><path fill="rgb(255,255,254)" stroke="rgb(255,255,254)" stroke-width="1" opacity="1" d="M 262 52 Q 265 51 264 54 Q 261 55 262 52 Z " /><path fill="rgb(255,255,254)" stroke="rgb(255,255,254)" stroke-width="1" opacity="1" d="M 183 55 Q 185.7 53.9 185 56.5 L 183 57.5 L 183 55 Z " /><path fill="rgb(255,255,254)" stroke="rgb(255,255,254)" stroke-width="1" opacity="1" d="M 181.5 59 Q 184.5 60.5 181.5 62 L 181.5 59 Z " /><path fill="rgb(255,255,254)" stroke="rgb(255,255,254)" stroke-width="1" opacity="1" d="M 270 60 Q 273 59 272 62 Q 269 63 270 60 Z " /><path fill="rgb(255,255,254)" stroke="rgb(255,255,254)" stroke-width="1" opacity="1" d="M 179 63 Q 181.7 61.9 181 64.5 L 174 74.5 L 173 79.5 L 169.5 85 L 169 83.5 L 179 63 Z " /><path fill="rgb(255,255,254)" stroke="rgb(255,255,254)" stroke-width="1" opacity="1" d="M 166.5 66 Q 168.8 65.3 168 67.5 L 166.5 66 Z " /><path fill="rgb(255,255,254)" stroke="rgb(255,255,254)" stroke-width="1" opacity="1" d="M 272.5 80 Q 274.8 79.3 274 81.5 L 272.5 80 Z " /><path fill="rgb(255,255,254)" stroke="rgb(255,255,254)" stroke-width="1" opacity="1" d="M 160 82 Q 163 81 162 84 Q 159 85 160 82 Z " /><path fill="rgb(255,255,254)" stroke="rgb(255,255,254)" stroke-width="1" opacity="1" d="M 271.5 82 L 275 86.5 L 283 105 L 286 106.5 L 285 108.5 L 288.5 114 Q 291.5 113.1 290 117.5 L 294 126.5 L 293 126.5 L 271.5 82 Z " /><path fill="rgb(255,255,254)" stroke="rgb(255,255,254)" stroke-width="1" opacity="1" d="M 167 86 L 169 86.5 L 161 103 L 159 102.5 L 167 88.5 L 167 86 Z " /><path fill="rgb(255,255,254)" stroke="rgb(255,255,254)" stroke-width="1" opacity="1" d="M 286 88 Q 289 87 288 90 Q 285 91 286 88 Z " /><path fill="rgb(255,255,254)" stroke="rgb(255,255,254)" stroke-width="1" opacity="1" d="M 278 90 Q 281 89 280 92 Q 277 93 278 90 Z " /><path fill="rgb(255,255,254)" stroke="rgb(255,255,254)" stroke-width="1" opacity="1" d="M 284 92 Q 287 91 286 94 Q 283 95 284 92 Z " /><path fill="rgb(255,255,254)" stroke="rgb(255,255,254)" stroke-width="1" opacity="1" d="M 156 96 Q 159.7 94.8 158 100 Q 154.3 101.2 156 96 Z " /><path fill="rgb(255,255,254)" stroke="rgb(255,255,254)" stroke-width="1" opacity="1" d="M 159.5 104 L 158 106.5 L 157.5 109 L 157 106.5 L 159.5 104 Z " /><path fill="rgb(255,255,254)" stroke="rgb(255,255,254)" stroke-width="1" opacity="1" d="M 155 110 L 157 110.5 L 149 127 L 141 129 Q 139.6 125 146.5 127 L 149 124.5 L 155 110 Z " /><path fill="rgb(255,255,254)" stroke="rgb(255,255,254)" stroke-width="1" opacity="1" d="M 295.5 127 L 299.5 128 L 301 127.5 Q 301.8 129.8 299.5 129 L 295.5 128 L 295.5 127 Z " /><path fill="rgb(255,255,254)" stroke="rgb(255,255,254)" stroke-width="1" opacity="1" d="M 124 128 Q 127.4 130 135 129.5 L 126 131 L 125.5 129 L 124 129.5 L 124 128 Z " /><path fill="rgb(255,255,254)" stroke="rgb(255,255,254)" stroke-width="1" opacity="1" d="M 336 128 Q 339 127 338 130 Q 335 131 336 128 Z " /><path fill="rgb(255,255,254)" stroke="rgb(255,255,254)" stroke-width="1" opacity="1" d="M 350 128 Q 353 127 352 130 Q 349 131 350 128 Z " /><path fill="rgb(255,255,254)" stroke="rgb(255,255,254)" stroke-width="1" opacity="1" d="M 368 128 Q 371 127 370 130 Q 367 131 368 128 Z " /><path fill="rgb(255,255,254)" stroke="rgb(255,255,254)" stroke-width="1" opacity="1" d="M 308.5 129 Q 315.3 127.3 317 130.5 L 315.5 130 L 308.5 130 L 308.5 129 Z " /><path fill="rgb(255,255,254)" stroke="rgb(255,255,254)" stroke-width="1" opacity="1" d="M 90 130 Q 93 129 92 132 Q 89 133 90 130 Z " /><path fill="rgb(255,255,254)" stroke="rgb(255,255,254)" stroke-width="1" opacity="1" d="M 102 130 Q 105 129 104 132 Q 101 133 102 130 Z " /><path fill="rgb(255,255,254)" stroke="rgb(255,255,254)" stroke-width="1" opacity="1" d="M 358 130 Q 361 129 360 132 Q 357 133 358 130 Z " /><path fill="rgb(255,255,254)" stroke="rgb(255,255,254)" stroke-width="1" opacity="1" d="M 112 131 L 120 131.5 L 112 133 L 112 131 Z " /><path fill="rgb(255,255,254)" stroke="rgb(255,255,254)" stroke-width="1" opacity="1" d="M 322.5 131 Q 329.3 129.2 331 132.5 L 328.5 133 Q 327.2 130.8 322.5 132 L 322.5 131 Z " /><path fill="rgb(255,255,254)" stroke="rgb(255,255,254)" stroke-width="1" opacity="1" d="M 46 132 Q 49 131 48 134 Q 45 135 46 132 Z " /><path fill="rgb(255,255,254)" stroke="rgb(255,255,254)" stroke-width="1" opacity="1" d="M 76 132 Q 79 131 78 134 Q 75 135 76 132 Z " /><path fill="rgb(255,255,254)" stroke="rgb(255,255,254)" stroke-width="1" opacity="1" d="M 366 132 Q 369.7 130.8 368 136 Q 364.3 137.2 366 132 Z " /><path fill="rgb(255,255,254)" stroke="rgb(255,255,254)" stroke-width="1" opacity="1" d="M 392 132 Q 395 131 394 134 Q 391 135 392 132 Z " /><path fill="rgb(255,255,254)" stroke="rgb(255,255,254)" stroke-width="1" opacity="1" d="M 99.5 133 L 106 133.5 L 99.5 134 L 99.5 133 Z " /><path fill="rgb(255,255,254)" stroke="rgb(255,255,254)" stroke-width="1" opacity="1" d="M 336.5 133 Q 343.3 131.3 345 134.5 L 342.5 135 Q 341.3 132.8 336.5 134 L 336.5 133 Z " /><path fill="rgb(255,255,254)" stroke="rgb(255,255,254)" stroke-width="1" opacity="1" d="M 64 134 Q 67 133 66 136 Q 63 137 64 134 Z " /><path fill="rgb(255,255,254)" stroke="rgb(255,255,254)" stroke-width="1" opacity="1" d="M 398 134 Q 401 133 400 136 Q 397 137 398 134 Z " /><path fill="rgb(255,255,254)" stroke="rgb(255,255,254)" stroke-width="1" opacity="1" d="M 85.5 135 L 92 135.5 L 83.5 137 L 83.5 136 L 85.5 135 Z " /><path fill="rgb(255,255,254)" stroke="rgb(255,255,254)" stroke-width="1" opacity="1" d="M 350.5 135 Q 357.3 133.3 359 136.5 L 356.5 137 Q 355.3 134.8 350.5 136 L 350.5 135 Z " /><path fill="rgb(255,255,254)" stroke="rgb(255,255,254)" stroke-width="1" opacity="1" d="M 70.5 137 L 78 137.5 L 69.5 139 L 70.5 137 Z " /><path fill="rgb(255,255,254)" stroke="rgb(255,255,254)" stroke-width="1" opacity="1" d="M 365.5 137 Q 371.5 135.5 373 138.5 L 370.5 139 L 365.5 138 L 365.5 137 Z " /><path fill="rgb(255,255,254)" stroke="rgb(255,255,254)" stroke-width="1" opacity="1" d="M 60.5 138 L 64 139.5 L 55.5 141 L 56.5 139 L 60.5 138 Z " /><path fill="rgb(255,255,254)" stroke="rgb(255,255,254)" stroke-width="1" opacity="1" d="M 379.5 139 L 384.5 140 Q 385.8 137.8 387 140.5 L 384.5 141 L 379.5 140 L 379.5 139 Z " /><path fill="rgb(255,255,254)" stroke="rgb(255,255,254)" stroke-width="1" opacity="1" d="M 42.5 141 L 50 141.5 L 41.5 143 L 42.5 141 Z " /><path fill="rgb(255,255,254)" stroke="rgb(255,255,254)" stroke-width="1" opacity="1" d="M 392.5 141 Q 399.2 139.3 401 142.5 L 398.5 143 Q 397.3 140.8 392.5 142 L 392.5 141 Z " /><path fill="rgb(255,255,254)" stroke="rgb(255,255,254)" stroke-width="1" opacity="1" d="M 28.5 143 L 36 143.5 L 27.5 145 L 28.5 143 Z " /><path fill="rgb(255,255,254)" stroke="rgb(255,255,254)" stroke-width="1" opacity="1" d="M 406.5 143 L 413 143.5 L 406.5 144 L 406.5 143 Z " /><path fill="rgb(255,255,254)" stroke="rgb(255,255,254)" stroke-width="1" opacity="1" d="M 4 144 Q 7 143 6 146 Q 3 147 4 144 Z " /><path fill="rgb(255,255,254)" stroke="rgb(255,255,254)" stroke-width="1" opacity="1" d="M 20.5 144 L 22 144.5 L 20.5 146 L 13.5 147 L 14.5 145 Q 19.3 146.3 20.5 144 Z " /><path fill="rgb(255,255,254)" stroke="rgb(255,255,254)" stroke-width="1" opacity="1" d="M 420.5 145 L 427.5 145 L 435 149 Q 433.9 151.7 436.5 151 L 436.5 152 L 428.5 147 L 420.5 146 L 420.5 145 Z " /><path fill="rgb(255,255,254)" stroke="rgb(255,255,254)" stroke-width="1" opacity="1" d="M 436 146 Q 439 145 438 148 Q 435 149 436 146 Z " /><path fill="rgb(255,255,254)" stroke="rgb(255,255,254)" stroke-width="1" opacity="1" d="M 10.5 147 L 12 147.5 L 7 151.5 L 5.5 154 L 5 151 L 7 151 Q 5.9 148.3 8.5 149 L 10.5 147 Z " /><path fill="rgb(255,255,254)" stroke="rgb(255,255,254)" stroke-width="1" opacity="1" d="M 440 152 Q 443.7 150.8 442 156 Q 438.3 157.2 440 152 Z " /><path fill="rgb(255,255,254)" stroke="rgb(255,255,254)" stroke-width="1" opacity="1" d="M 3.5 155 Q 6.3 156.3 4 157.5 L 3.5 159 L 3.5 155 Z " /><path fill="rgb(255,255,254)" stroke="rgb(255,255,254)" stroke-width="1" opacity="1" d="M 437 155 Q 440.3 153.7 439 158.5 L 438 158.5 L 437 155 Z " /><path fill="rgb(255,255,254)" stroke="rgb(255,255,254)" stroke-width="1" opacity="1" d="M 0 166 L 2 166.5 L 0 167.5 L 0 166 Z " /><path fill="rgb(255,255,254)" stroke="rgb(255,255,254)" stroke-width="1" opacity="1" d="M 3.5 166 L 8 174.5 L 5 175 Q 6 170.8 3 169.5 L 3.5 166 Z " /><path fill="rgb(255,255,254)" stroke="rgb(255,255,254)" stroke-width="1" opacity="1" d="M 438.5 166 L 439 168.5 L 438.5 171 Q 435.9 170.2 437 173.5 L 429 180.5 L 427 183.5 L 421.5 188 L 424.5 184 Q 426.8 184.8 426 182.5 L 436 172.5 L 438.5 166 Z " /><path fill="rgb(255,255,254)" stroke="rgb(255,255,254)" stroke-width="1" opacity="1" d="M 440 170 Q 443 169 442 172 Q 439 173 440 170 Z " /><path fill="rgb(255,255,254)" stroke="rgb(255,255,254)" stroke-width="1" opacity="1" d="M 7.5 176 L 9.5 176 L 37 202.5 L 35 203 L 35 201 L 33 201 L 33 199 L 31 199 L 31 197 Q 28.3 198.1 29 195.5 L 25 193 Q 26.3 190 22.5 191 L 18 185 L 14 182.5 L 12.5 180 L 7.5 177 L 7.5 176 Z " /><path fill="rgb(255,255,254)" stroke="rgb(255,255,254)" stroke-width="1" opacity="1" d="M 6 180 L 9 181.5 Q 8.3 183.8 10.5 183 L 12 185.5 L 11 185.5 L 10.5 184 L 9.5 185 L 6 181.5 L 6 180 Z " /><path fill="rgb(255,255,254)" stroke="rgb(255,255,254)" stroke-width="1" opacity="1" d="M 428.5 184 L 430 187.5 L 426 190 L 428.5 184 Z " /><path fill="rgb(255,255,254)" stroke="rgb(255,255,254)" stroke-width="1" opacity="1" d="M 419.5 189 L 421 189.5 Q 420.5 193.5 415.5 193 L 415.5 192 L 419.5 189 Z " /><path fill="rgb(255,255,254)" stroke="rgb(255,255,254)" stroke-width="1" opacity="1" d="M 413.5 194 L 415 194.5 L 413 195 L 413 197 L 411 197 L 411 199 L 409 199 L 409 201 L 407 201 L 407 203 Q 404.3 201.9 405 204.5 L 405.5 206 L 403.5 205 L 403 207 L 401 207 L 401 209 L 399 209 L 399 211 L 397 211 Q 398.1 213.7 395.5 213 L 391.5 216 L 395.5 211 L 413.5 194 Z " /><path fill="rgb(255,255,254)" stroke="rgb(255,255,254)" stroke-width="1" opacity="1" d="M 27.5 196 L 28 198 L 26 197.5 L 27.5 196 Z " /><path fill="rgb(255,255,254)" stroke="rgb(255,255,254)" stroke-width="1" opacity="1" d="M 39.5 205 L 60 224.5 L 59.5 226 L 48.5 215 Q 47.3 217.3 46 214.5 Q 48.8 212.8 44.5 211 Q 41.9 211.7 43 209 L 41 209 L 41 207 L 39 207 L 39.5 205 Z " /><path fill="rgb(255,255,254)" stroke="rgb(255,255,254)" stroke-width="1" opacity="1" d="M 389.5 217 L 390 218.5 L 378.5 230 L 375 231 L 375 233 L 373 233 L 373 235 L 371 235 Q 372.1 237.7 369.5 237 L 367 241 L 365 241 L 365 243 L 363 243 Q 364.1 245.7 361.5 245 L 375.5 230 L 385 223 L 389.5 217 Z " /><path fill="rgb(255,255,254)" stroke="rgb(255,255,254)" stroke-width="1" opacity="1" d="M 40 220 Q 43 219 42 222 Q 39 223 40 220 Z " /><path fill="rgb(255,255,254)" stroke="rgb(255,255,254)" stroke-width="1" opacity="1" d="M 54 224 Q 57 223 56 226 Q 53 227 54 224 Z " /><path fill="rgb(255,255,254)" stroke="rgb(255,255,254)" stroke-width="1" opacity="1" d="M 61.5 226 L 94 256.5 L 91 257 L 90.5 254 Q 88.8 256.7 87 252.5 Q 89.3 251.3 86.5 250 L 85 250.5 L 81 245.5 L 77 243 L 77 241 L 75 241 L 75 239 L 73 239 L 73 237 L 71 237 L 71 235 L 69 235 L 67 231 L 63.5 231 L 61 228.5 L 61.5 226 Z " /><path fill="rgb(255,255,254)" stroke="rgb(255,255,254)" stroke-width="1" opacity="1" d="M 382 228 Q 385 226.8 384 230.5 L 382 231.5 L 382 228 Z " /><path fill="rgb(255,255,254)" stroke="rgb(255,255,254)" stroke-width="1" opacity="1" d="M 56.5 230 Q 58.8 229.3 58 231.5 L 54 234 L 56.5 230 Z " /><path fill="rgb(255,255,254)" stroke="rgb(255,255,254)" stroke-width="1" opacity="1" d="M 376 232 Q 379 231 378 234 Q 375 235 376 232 Z " /><path fill="rgb(255,255,254)" stroke="rgb(255,255,254)" stroke-width="1" opacity="1" d="M 52 236 Q 55 235 54 238 Q 51 239 52 236 Z " /><path fill="rgb(255,255,254)" stroke="rgb(255,255,254)" stroke-width="1" opacity="1" d="M 68.5 238 Q 70.8 237.3 70 239.5 L 68.5 238 Z " /><path fill="rgb(255,255,254)" stroke="rgb(255,255,254)" stroke-width="1" opacity="1" d="M 70 242 Q 73 241 72 244 Q 69 245 70 242 Z " /><path fill="rgb(255,255,254)" stroke="rgb(255,255,254)" stroke-width="1" opacity="1" d="M 359.5 246 L 361 246.5 L 359 247 L 359 249 Q 356.3 247.9 357 250.5 L 357.5 252 L 355.5 251 L 342 263.5 L 340 266.5 L 341 270.5 L 340 270.5 L 339 265.5 L 359.5 246 Z " /><path fill="rgb(255,255,254)" stroke="rgb(255,255,254)" stroke-width="1" opacity="1" d="M 364 254 Q 367 253 366 256 Q 363 257 364 254 Z " /><path fill="rgb(255,255,254)" stroke="rgb(255,255,254)" stroke-width="1" opacity="1" d="M 94 258 L 98 260.5 Q 97.3 262.8 99.5 262 L 103 266.5 L 101.5 272 L 101 265.5 L 95.5 260 Q 92.9 260.7 94 258 Z " /><path fill="rgb(255,255,254)" stroke="rgb(255,255,254)" stroke-width="1" opacity="1" d="M 99 277 Q 101.7 275.9 101 278.5 L 99.5 283 L 99 277 Z " /><path fill="rgb(255,255,254)" stroke="rgb(255,255,254)" stroke-width="1" opacity="1" d="M 342.5 278 L 343 282.5 L 342 282.5 L 342.5 278 Z " /><path fill="rgb(255,255,254)" stroke="rgb(255,255,254)" stroke-width="1" opacity="1" d="M 98.5 287 L 99 289.5 L 97.5 295 L 97 288.5 L 98.5 287 Z " /><path fill="rgb(255,255,254)" stroke="rgb(255,255,254)" stroke-width="1" opacity="1" d="M 343.5 288 Q 346 289 345 293.5 L 344 293.5 L 343.5 288 Z " /><path fill="rgb(255,255,254)" stroke="rgb(255,255,254)" stroke-width="1" opacity="1" d="M 96.5 299 L 97 300.5 L 95.5 306 L 95 300.5 L 96.5 299 Z " /><path fill="rgb(255,255,254)" stroke="rgb(255,255,254)" stroke-width="1" opacity="1" d="M 345.5 299 Q 348 300 347 304.5 L 346 304.5 L 345.5 299 Z " /><path fill="rgb(255,255,254)" stroke="rgb(255,255,254)" stroke-width="1" opacity="1" d="M 348.5 310 Q 350.8 309.3 350 311.5 L 348.5 317 L 347 311.5 L 348.5 310 Z " /><path fill="rgb(255,255,254)" stroke="rgb(255,255,254)" stroke-width="1" opacity="1" d="M 93.5 311 Q 96.3 312.3 94 313.5 L 93.5 318 L 93.5 311 Z " /><path fill="rgb(255,255,254)" stroke="rgb(255,255,254)" stroke-width="1" opacity="1" d="M 86 316 Q 89 315 88 318 Q 85 319 86 316 Z " /><path fill="rgb(255,255,254)" stroke="rgb(255,255,254)" stroke-width="1" opacity="1" d="M 349.5 321 L 351 324.5 L 350.5 329 L 349 323.5 L 349.5 321 Z " /><path fill="rgb(255,255,254)" stroke="rgb(255,255,254)" stroke-width="1" opacity="1" d="M 84 322 Q 89.2 320.3 88 324 Q 82.8 325.7 84 322 Z " /><path fill="rgb(255,255,254)" stroke="rgb(255,255,254)" stroke-width="1" opacity="1" d="M 91 322 Q 93.7 320.9 93 323.5 L 91.5 329 L 91 322 Z " /><path fill="rgb(255,255,254)" stroke="rgb(255,255,254)" stroke-width="1" opacity="1" d="M 351.5 332 Q 354.5 333.5 353 339.5 L 352 339.5 L 351.5 332 Z " /><path fill="rgb(255,255,254)" stroke="rgb(255,255,254)" stroke-width="1" opacity="1" d="M 90.5 333 L 91 335.5 L 89.5 340 L 88 336.5 L 90.5 333 Z " /><path fill="rgb(255,255,254)" stroke="rgb(255,255,254)" stroke-width="1" opacity="1" d="M 82 334 Q 85 333 84 336 Q 81 337 82 334 Z " /><path fill="rgb(255,255,254)" stroke="rgb(255,255,254)" stroke-width="1" opacity="1" d="M 87 345 Q 89.7 343.9 89 346.5 L 87.5 352 L 87 345 Z " /><path fill="rgb(255,255,254)" stroke="rgb(255,255,254)" stroke-width="1" opacity="1" d="M 353 345 L 356 346.5 L 358 352 L 354 351 L 353 345 Z " /><path fill="rgb(255,255,254)" stroke="rgb(255,255,254)" stroke-width="1" opacity="1" d="M 82 346 Q 85 345 84 348 Q 81 349 82 346 Z " /><path fill="rgb(255,255,254)" stroke="rgb(255,255,254)" stroke-width="1" opacity="1" d="M 219.5 350 L 225.5 351 L 235 356.5 L 232.5 357 L 222.5 351 L 219.5 351 L 219.5 350 Z " /><path fill="rgb(255,255,254)" stroke="rgb(255,255,254)" stroke-width="1" opacity="1" d="M 216.5 351 L 218 351.5 Q 215.3 355.3 209.5 356 L 209.5 355 L 216.5 351 Z " /><path fill="rgb(255,255,254)" stroke="rgb(255,255,254)" stroke-width="1" opacity="1" d="M 355.5 356 Q 357.8 355.3 357 357.5 L 355.5 356 Z " /><path fill="rgb(255,255,254)" stroke="rgb(255,255,254)" stroke-width="1" opacity="1" d="M 85 357 Q 87.7 355.9 87 358.5 L 86 363 L 82.5 364 L 84 361.5 L 85 357 Z " /><path fill="rgb(255,255,254)" stroke="rgb(255,255,254)" stroke-width="1" opacity="1" d="M 205.5 357 L 206 359 L 203.5 359 L 190.5 366 L 191.5 364 L 205.5 357 Z " /><path fill="rgb(255,255,254)" stroke="rgb(255,255,254)" stroke-width="1" opacity="1" d="M 236.5 357 L 243 360.5 L 240.5 361 L 236.5 357 Z " /><path fill="rgb(255,255,254)" stroke="rgb(255,255,254)" stroke-width="1" opacity="1" d="M 356.5 359 L 357 362.5 L 356 362.5 L 356.5 359 Z " /><path fill="rgb(255,255,254)" stroke="rgb(255,255,254)" stroke-width="1" opacity="1" d="M 245.5 362 L 252 365.5 L 250.5 365 Q 244.8 364.5 245.5 362 Z " /><path fill="rgb(255,255,254)" stroke="rgb(255,255,254)" stroke-width="1" opacity="1" d="M 358 362 L 362 364.5 Q 362.8 366.8 360.5 366 L 358.5 365 L 357 365.5 L 358 362 Z " /><path fill="rgb(255,255,254)" stroke="rgb(255,255,254)" stroke-width="1" opacity="1" d="M 210 364 Q 215.2 362.3 214 366 Q 208.8 367.7 210 364 Z " /><path fill="rgb(255,255,254)" stroke="rgb(255,255,254)" stroke-width="1" opacity="1" d="M 364 364 Q 369.2 362.3 368 366 Q 362.8 367.7 364 364 Z " /><path fill="rgb(255,255,254)" stroke="rgb(255,255,254)" stroke-width="1" opacity="1" d="M 222 366 Q 225 365 224 368 Q 221 369 222 366 Z " /><path fill="rgb(255,255,254)" stroke="rgb(255,255,254)" stroke-width="1" opacity="1" d="M 236 366 Q 239 365 238 368 Q 235 369 236 366 Z " /><path fill="rgb(255,255,254)" stroke="rgb(255,255,254)" stroke-width="1" opacity="1" d="M 253.5 366 L 257 367 Q 258 370 255 369 Q 256.1 366.3 253.5 367 L 253.5 366 Z " /><path fill="rgb(255,255,254)" stroke="rgb(255,255,254)" stroke-width="1" opacity="1" d="M 84.5 367 L 85 369.5 L 83.5 375 L 83 370.5 L 84.5 367 Z " /><path fill="rgb(255,255,254)" stroke="rgb(255,255,254)" stroke-width="1" opacity="1" d="M 185.5 367 L 184.5 369 Q 182.3 368.3 183 370.5 L 182 374 Q 178.7 375.3 180 370.5 L 185.5 367 Z " /><path fill="rgb(255,255,254)" stroke="rgb(255,255,254)" stroke-width="1" opacity="1" d="M 357.5 367 L 358.5 369 Q 355.7 369.7 357.5 367 Z " /><path fill="rgb(255,255,254)" stroke="rgb(255,255,254)" stroke-width="1" opacity="1" d="M 260.5 369 L 261.5 371 L 260.5 369 Z " /><path fill="rgb(255,255,254)" stroke="rgb(255,255,254)" stroke-width="1" opacity="1" d="M 177.5 371 Q 180.1 370.3 179 373 L 176 372.5 L 177.5 371 Z " /><path fill="rgb(255,255,254)" stroke="rgb(255,255,254)" stroke-width="1" opacity="1" d="M 173.5 373 Q 176.1 372.3 175 375 L 172 374.5 L 173.5 373 Z " /><path fill="rgb(255,255,254)" stroke="rgb(255,255,254)" stroke-width="1" opacity="1" d="M 267.5 373 L 270 374.5 L 268.5 375 L 267.5 373 Z " /><path fill="rgb(255,255,254)" stroke="rgb(255,255,254)" stroke-width="1" opacity="1" d="M 271 375 L 274 376.5 L 271 377 L 271 375 Z " /><path fill="rgb(255,255,254)" stroke="rgb(255,255,254)" stroke-width="1" opacity="1" d="M 182 376 Q 185 375 184 378 Q 181 379 182 376 Z " /><path fill="rgb(255,255,254)" stroke="rgb(255,255,254)" stroke-width="1" opacity="1" d="M 165.5 377 Q 168.1 376.3 167 379 L 163 379 Q 164.3 382 160.5 381 L 160.5 380 L 165.5 377 Z " /><path fill="rgb(255,255,254)" stroke="rgb(255,255,254)" stroke-width="1" opacity="1" d="M 275.5 377 L 278 378.5 L 276.5 379 L 275.5 377 Z " /><path fill="rgb(255,255,254)" stroke="rgb(255,255,254)" stroke-width="1" opacity="1" d="M 178 378 Q 181 377 180 380 Q 177 381 178 378 Z " /><path fill="rgb(255,255,254)" stroke="rgb(255,255,254)" stroke-width="1" opacity="1" d="M 256 378 Q 259 377 258 380 Q 255 381 256 378 Z " /><path fill="rgb(255,255,254)" stroke="rgb(255,255,254)" stroke-width="1" opacity="1" d="M 81 379 Q 83.7 377.9 83 380.5 L 81.5 386 L 81 379 Z " /><path fill="rgb(255,255,254)" stroke="rgb(255,255,254)" stroke-width="1" opacity="1" d="M 279 379 L 282 380.5 L 279 381 L 279 379 Z " /><path fill="rgb(255,255,254)" stroke="rgb(255,255,254)" stroke-width="1" opacity="1" d="M 359 379 Q 362.5 377.9 361 385.5 L 360 385.5 L 359 379 Z " /><path fill="rgb(255,255,254)" stroke="rgb(255,255,254)" stroke-width="1" opacity="1" d="M 157.5 381 Q 160.1 380.3 159 383 L 156 382.5 L 157.5 381 Z " /><path fill="rgb(255,255,254)" stroke="rgb(255,255,254)" stroke-width="1" opacity="1" d="M 283 381 L 286 382.5 L 283 383 L 283 381 Z " /><path fill="rgb(255,255,254)" stroke="rgb(255,255,254)" stroke-width="1" opacity="1" d="M 154.5 383 L 155 385 L 141.5 391 L 142.5 389 L 154.5 383 Z " /><path fill="rgb(255,255,254)" stroke="rgb(255,255,254)" stroke-width="1" opacity="1" d="M 287.5 383 L 313 396.5 L 311.5 397 L 308.5 395 L 306.5 396 L 305 393 L 302.5 393 L 287 385 L 287.5 383 Z " /><path fill="rgb(255,255,254)" stroke="rgb(255,255,254)" stroke-width="1" opacity="1" d="M 80.5 391 L 81 392.5 L 80 395.5 L 81 398.5 L 79 397.5 Q 77.8 392.3 80.5 391 Z " /><path fill="rgb(255,255,254)" stroke="rgb(255,255,254)" stroke-width="1" opacity="1" d="M 139.5 391 L 140 393 L 121 401 Q 122.3 404.3 117.5 403 Q 116.4 405.8 113 405 Q 114.3 408 110.5 407 L 111.5 405 L 139.5 391 Z " /><path fill="rgb(255,255,254)" stroke="rgb(255,255,254)" stroke-width="1" opacity="1" d="M 362.5 391 L 363 398.5 L 361 399.5 L 362 393.5 Q 359.8 392.3 362.5 391 Z " /><path fill="rgb(255,255,254)" stroke="rgb(255,255,254)" stroke-width="1" opacity="1" d="M 300 394 Q 303 393 302 396 Q 299 397 300 394 Z " /><path fill="rgb(255,255,254)" stroke="rgb(255,255,254)" stroke-width="1" opacity="1" d="M 366 396 Q 369 395 368 398 Q 365 399 366 396 Z " /><path fill="rgb(255,255,254)" stroke="rgb(255,255,254)" stroke-width="1" opacity="1" d="M 314.5 397 L 332 406.5 L 329 407 Q 330.1 404.3 327.5 405 L 326 404.5 Q 326.7 407.1 324 406 L 325 403.5 L 321 403 Q 322.3 400 318.5 401 L 314.5 397 Z " /><path fill="rgb(255,255,254)" stroke="rgb(255,255,254)" stroke-width="1" opacity="1" d="M 81.5 400 L 83 403.5 L 81 404 L 81.5 400 Z " /><path fill="rgb(255,255,254)" stroke="rgb(255,255,254)" stroke-width="1" opacity="1" d="M 360.5 401 L 361 404 L 359 403.5 L 360.5 401 Z " /><path fill="rgb(255,255,254)" stroke="rgb(255,255,254)" stroke-width="1" opacity="1" d="M 358.5 405 L 359 406.5 L 354.5 409 L 354.5 408 L 358.5 405 Z " /><path fill="rgb(255,255,254)" stroke="rgb(255,255,254)" stroke-width="1" opacity="1" d="M 83.5 406 L 89 409.5 L 87.5 410 L 85 409 Q 86.1 406.3 83.5 407 L 83.5 406 Z " /><path fill="rgb(255,255,254)" stroke="rgb(255,255,254)" stroke-width="1" opacity="1" d="M 107.5 407 Q 110.1 406.3 109 409 L 102.5 411 L 103.5 409 L 107.5 407 Z " /><path fill="rgb(255,255,254)" stroke="rgb(255,255,254)" stroke-width="1" opacity="1" d="M 333 407 L 336 408.5 L 333 409 L 333 407 Z " /><path fill="rgb(255,255,254)" stroke="rgb(255,255,254)" stroke-width="1" opacity="1" d="M 337 409 L 340 410.5 L 337 410.5 L 337 409 Z " /><path fill="rgb(255,255,254)" stroke="rgb(255,255,254)" stroke-width="1" opacity="1" d="M 326 410 Q 329 409 328 412 Q 325 413 326 410 Z " /><path fill="rgb(255,255,254)" stroke="rgb(255,255,254)" stroke-width="1" opacity="1" d="M 350.5 410 L 354 410.5 L 350.5 411 L 350.5 410 Z " /><path fill="rgb(248,221,108)" stroke="rgb(248,221,108)" stroke-width="1" opacity="1" d="M 217.5 6 L 225.5 6 L 232 11.5 L 290 127.5 L 293.5 131 L 306.5 132 L 307.5 133 L 313.5 133 L 314.5 134 L 320.5 134 L 321.5 135 L 327.5 135 L 328.5 136 L 334.5 136 L 335.5 137 L 341.5 137 L 342.5 138 L 348.5 138 L 349.5 139 L 355.5 139 L 356.5 140 L 362.5 140 L 363.5 141 L 369.5 141 L 370.5 142 L 376.5 142 L 377.5 143 L 383.5 143 L 412.5 148 L 418.5 148 L 419.5 149 L 425.5 149 L 432 152 Q 435.8 156 436 164.5 L 432 172.5 L 416.5 188 L 336 264.5 L 359 395.5 L 356 403.5 L 353.5 406 Q 349.8 409.3 341.5 408 L 220.5 346 L 100.5 408 L 92.5 408 L 86 403.5 L 83 394.5 L 106 264.5 L 8 170.5 L 6 160.5 L 10 152 L 13.5 150 L 23.5 148 L 29.5 148 L 30.5 147 L 36.5 147 L 37.5 146 L 43.5 146 L 44.5 145 L 50.5 145 L 51.5 144 L 57.5 144 L 58.5 143 L 148.5 131 L 152 127.5 L 210 11.5 L 213.5 8 L 217.5 6 Z M 218 7 L 216 8 L 209 16 L 152 130 L 149 132 L 144 133 L 122 135 L 115 137 L 108 137 L 87 141 L 80 141 L 73 143 L 66 143 L 59 145 L 52 145 L 51 146 L 45 146 L 44 147 L 14 151 Q 9 154 7 161 Q 6 167 9 170 L 91 247 L 107 265 L 105 280 L 103 285 L 103 291 L 101 297 L 101 303 L 99 308 L 99 314 L 97 320 L 97 325 L 95 331 L 95 337 L 93 342 L 91 360 L 89 365 L 89 371 L 85 388 L 85 400 L 87 403 L 94 407 L 101 407 L 117 399 L 122 395 L 144 385 L 221 345 L 247 357 L 260 365 L 313 391 L 342 407 Q 350 409 353 405 Q 357 402 358 396 L 357 395 L 357 388 L 355 382 L 353 365 L 351 359 L 351 353 L 349 347 L 349 342 L 347 336 L 347 331 L 345 325 L 345 319 L 343 314 L 341 296 L 339 291 L 339 285 L 335 268 L 336 263 L 415 188 L 433 170 L 435 165 Q 436 158 433 156 Q 430 151 425 150 L 398 147 L 391 145 L 384 145 L 377 143 L 370 143 L 363 141 L 356 141 L 349 139 L 342 139 L 335 137 L 328 137 L 307 133 L 299 133 L 292 131 L 287 125 L 232 14 L 225 7 L 218 7 Z " /><path fill="rgb(253,222,92)" stroke="rgb(253,222,92)" stroke-width="1" opacity="1" d="M 217.5 7 L 219 7.5 L 215 9 L 215 11 L 213 11 Q 214.1 13.7 211.5 13 L 215.5 8 L 217.5 7 Z " /><path fill="rgb(253,222,92)" stroke="rgb(253,222,92)" stroke-width="1" opacity="1" d="M 223.5 7 Q 229.6 8.4 232 13.5 L 263 75.5 L 261 74.5 L 237 27.5 L 237 25 Q 233.7 26.3 235 21.5 L 228.5 11 Q 225.9 11.7 227 9 L 224.5 9 L 223.5 7 Z " /><path fill="rgb(253,222,92)" stroke="rgb(253,222,92)" stroke-width="1" opacity="1" d="M 210.5 14 L 211 15.5 L 169 97.5 L 169 100 L 167 99.5 L 210.5 14 Z " /><path fill="rgb(253,222,92)" stroke="rgb(253,222,92)" stroke-width="1" opacity="1" d="M 263.5 77 L 271 91.5 L 269 90.5 L 263 79.5 L 263.5 77 Z " /><path fill="rgb(253,222,92)" stroke="rgb(253,222,92)" stroke-width="1" opacity="1" d="M 271.5 93 L 279 107.5 L 277 106.5 Q 274.4 105.1 275 100.5 L 271 95.5 L 271.5 93 Z " /><path fill="rgb(253,222,92)" stroke="rgb(253,222,92)" stroke-width="1" opacity="1" d="M 166.5 101 L 167 103.5 L 163.5 108 L 163 106.5 L 166.5 101 Z " /><path fill="rgb(253,222,92)" stroke="rgb(253,222,92)" stroke-width="1" opacity="1" d="M 162.5 109 L 163 111.5 L 159.5 116 L 159 114.5 L 162.5 109 Z " /><path fill="rgb(253,222,92)" stroke="rgb(253,222,92)" stroke-width="1" opacity="1" d="M 279.5 109 L 287 123.5 L 285 122.5 Q 282.2 120.5 283 116 Q 279.7 117.3 281 112.5 Q 278 111.5 279.5 109 Z " /><path fill="rgb(253,222,92)" stroke="rgb(253,222,92)" stroke-width="1" opacity="1" d="M 158.5 117 L 159 119.5 L 153 131 L 149.5 133 L 144.5 133 L 144.5 132 Q 150.3 132.8 152 129.5 L 158.5 117 Z " /><path fill="rgb(253,222,92)" stroke="rgb(253,222,92)" stroke-width="1" opacity="1" d="M 287.5 125 L 291.5 131 L 298 132.5 L 292.5 133 L 289 131 L 287 127.5 L 287.5 125 Z " /><path fill="rgb(253,222,92)" stroke="rgb(253,222,92)" stroke-width="1" opacity="1" d="M 136.5 133 Q 139.1 132.3 138 135 L 129 134.5 L 136.5 133 Z " /><path fill="rgb(253,222,92)" stroke="rgb(253,222,92)" stroke-width="1" opacity="1" d="M 305 133 L 314 134.5 L 305 135 L 305 133 Z " /><path fill="rgb(253,222,92)" stroke="rgb(253,222,92)" stroke-width="1" opacity="1" d="M 121.5 135 L 123 135.5 Q 121.5 138.5 115.5 137 L 115.5 136 Q 120.2 137.2 121.5 135 Z " /><path fill="rgb(253,222,92)" stroke="rgb(253,222,92)" stroke-width="1" opacity="1" d="M 319.5 135 L 327 136.5 L 320.5 137 L 319.5 135 Z " /><path fill="rgb(253,222,92)" stroke="rgb(253,222,92)" stroke-width="1" opacity="1" d="M 107.5 137 L 109 137.5 Q 107.3 140.8 100.5 139 L 100.5 138 Q 106 139.5 107.5 137 Z " /><path fill="rgb(253,222,92)" stroke="rgb(253,222,92)" stroke-width="1" opacity="1" d="M 332.5 137 L 341 138.5 L 333.5 139 L 332.5 137 Z " /><path fill="rgb(253,222,92)" stroke="rgb(253,222,92)" stroke-width="1" opacity="1" d="M 93.5 139 L 95 139.5 Q 93.5 142.5 87.5 141 L 87.5 140 Q 92.2 141.2 93.5 139 Z " /><path fill="rgb(253,222,92)" stroke="rgb(253,222,92)" stroke-width="1" opacity="1" d="M 347.5 139 L 355 140.5 L 348.5 141 L 347.5 139 Z " /><path fill="rgb(253,222,92)" stroke="rgb(253,222,92)" stroke-width="1" opacity="1" d="M 79.5 141 L 81 141.5 Q 79.5 144.5 73.5 143 L 73.5 142 Q 78.3 143.3 79.5 141 Z " /><path fill="rgb(253,222,92)" stroke="rgb(253,222,92)" stroke-width="1" opacity="1" d="M 361.5 141 L 369 142.5 L 362.5 143 L 361.5 141 Z " /><path fill="rgb(253,222,92)" stroke="rgb(253,222,92)" stroke-width="1" opacity="1" d="M 65.5 143 L 67 143.5 Q 65.5 146.5 59.5 145 L 59.5 144 Q 64.3 145.3 65.5 143 Z " /><path fill="rgb(253,222,92)" stroke="rgb(253,222,92)" stroke-width="1" opacity="1" d="M 375.5 143 L 383 144.5 L 376.5 145 L 375.5 143 Z " /><path fill="rgb(253,222,92)" stroke="rgb(253,222,92)" stroke-width="1" opacity="1" d="M 51.5 145 L 53 145.5 Q 51.3 148.8 44.5 147 L 44.5 146 Q 50 147.5 51.5 145 Z " /><path fill="rgb(253,222,92)" stroke="rgb(253,222,92)" stroke-width="1" opacity="1" d="M 389.5 145 L 397 146.5 L 390.5 147 L 389.5 145 Z " /><path fill="rgb(253,222,92)" stroke="rgb(253,222,92)" stroke-width="1" opacity="1" d="M 37.5 147 L 39 147.5 Q 37.5 150.5 31.5 149 L 31.5 148 Q 36.2 149.3 37.5 147 Z " /><path fill="rgb(253,222,92)" stroke="rgb(253,222,92)" stroke-width="1" opacity="1" d="M 403.5 147 L 411 148.5 L 404.5 149 L 403.5 147 Z " /><path fill="rgb(253,222,92)" stroke="rgb(253,222,92)" stroke-width="1" opacity="1" d="M 23.5 149 L 25 149.5 Q 23.5 152.5 17.5 151 L 17.5 150 Q 22.2 151.3 23.5 149 Z " /><path fill="rgb(253,222,92)" stroke="rgb(253,222,92)" stroke-width="1" opacity="1" d="M 417.5 149 L 425 150.5 L 418.5 151 L 417.5 149 Z " /><path fill="rgb(253,222,92)" stroke="rgb(253,222,92)" stroke-width="1" opacity="1" d="M 13.5 151 L 15 151.5 L 11 157 Q 7.3 155.7 9 161.5 L 8 163.5 L 9 167.5 L 8 167.5 L 7 160.5 Q 8.5 154 13.5 151 Z " /><path fill="rgb(253,222,92)" stroke="rgb(253,222,92)" stroke-width="1" opacity="1" d="M 427.5 151 L 433 155.5 Q 435.6 158.4 435 164.5 L 433 169.5 L 414.5 188 L 336 262.5 L 335.5 264 L 335 261 L 337 261 L 337 259 L 339 259 L 339 257 L 341 257 L 341 255 L 343 255 L 343 253 L 345 253 L 345 251 L 347 251 L 347 249 L 349 249 Q 347.9 246.3 350.5 247 L 355 243.5 L 356.5 241 L 359 239.5 L 360.5 237 L 363 235.5 L 364.5 233 L 367 231.5 L 369.5 228 L 373 227 L 373 225 L 375 225 L 375 223 L 377 223 L 377 221 L 379 221 L 379 219 L 381 219 L 381 217 L 383 217 L 383 215 L 385 215 L 385 213 L 387 213 L 387 211 L 389 211 Q 387.9 208.3 390.5 209 L 396 204.5 Q 395.3 202.3 397.5 203 L 400.5 199 L 403 197.5 L 404.5 195 L 407 193.5 L 408.5 191 L 412 188.5 L 412 187 L 415 187 L 415 185 L 417 185 Q 415.9 182.3 418.5 183 L 421 179 L 425 176.5 Q 424.3 173.9 427 175 L 427 173 L 429 173 L 429 171 L 431 171 L 431 168.5 Q 434.2 166.7 434 161.5 L 433 157.5 L 429.5 153 Q 425.5 154 427.5 151 Z " /><path fill="rgb(253,222,92)" stroke="rgb(253,222,92)" stroke-width="1" opacity="1" d="M 9.5 169 Q 11.8 168.3 11 170.5 L 15 173 L 15 175 L 17 175 L 17 177 L 19 177 L 19 179 L 21 179 L 21 181 L 23 181 L 23 183 L 25 183 L 27 187 L 29.5 187 L 32.5 191 Q 34.8 190.3 34 192.5 L 46 203.5 Q 45.3 205.8 47.5 205 L 51 207 L 51 209 L 53 209 L 53 211 L 55 211 L 55 213 L 57 213 L 57 215 L 59 215 L 59 217 L 61 217 L 61 219 L 63 219 L 65 223 L 67 223 L 67 225 L 69.5 225 L 72.5 229 Q 74.8 228.3 74 230.5 L 79 234.5 L 81.5 238 L 85 240.5 L 86.5 243 L 93 247 L 97.5 253 Q 99.8 252.3 99 254.5 L 103 257 L 103 259 L 107 261 L 107 263.5 L 106 263.5 L 90.5 247 L 27.5 188 L 9.5 169 Z " /><path fill="rgb(253,222,92)" stroke="rgb(253,222,92)" stroke-width="1" opacity="1" d="M 106.5 268 L 107 273.5 L 105 274.5 L 106.5 268 Z " /><path fill="rgb(253,222,92)" stroke="rgb(253,222,92)" stroke-width="1" opacity="1" d="M 335.5 268 L 337 274.5 L 335 273.5 L 335.5 268 Z " /><path fill="rgb(253,222,92)" stroke="rgb(253,222,92)" stroke-width="1" opacity="1" d="M 337.5 279 L 339 286.5 L 337 285.5 L 337.5 279 Z " /><path fill="rgb(253,222,92)" stroke="rgb(253,222,92)" stroke-width="1" opacity="1" d="M 104.5 280 L 105 286 Q 102.3 287.1 103 284.5 L 104.5 280 Z " /><path fill="rgb(253,222,92)" stroke="rgb(253,222,92)" stroke-width="1" opacity="1" d="M 102.5 291 L 103 297.5 L 101 298.5 L 102.5 291 Z " /><path fill="rgb(253,222,92)" stroke="rgb(253,222,92)" stroke-width="1" opacity="1" d="M 339.5 291 L 341 297 L 339 297 L 339.5 291 Z " /><path fill="rgb(253,222,92)" stroke="rgb(253,222,92)" stroke-width="1" opacity="1" d="M 341.5 302 L 343 308.5 L 341 307.5 L 341.5 302 Z " /><path fill="rgb(253,222,92)" stroke="rgb(253,222,92)" stroke-width="1" opacity="1" d="M 100.5 303 L 101 307.5 L 99 308.5 L 100.5 303 Z " /><path fill="rgb(253,222,92)" stroke="rgb(253,222,92)" stroke-width="1" opacity="1" d="M 98.5 314 L 99 319.5 L 97 320.5 L 98.5 314 Z " /><path fill="rgb(253,222,92)" stroke="rgb(253,222,92)" stroke-width="1" opacity="1" d="M 343.5 314 L 345 320.5 L 343 319.5 L 343.5 314 Z " /><path fill="rgb(253,222,92)" stroke="rgb(253,222,92)" stroke-width="1" opacity="1" d="M 96.5 325 L 97 331.5 L 95 332.5 L 96.5 325 Z " /><path fill="rgb(253,222,92)" stroke="rgb(253,222,92)" stroke-width="1" opacity="1" d="M 345.5 325 L 347 332 L 345 331.5 L 345.5 325 Z " /><path fill="rgb(253,222,92)" stroke="rgb(253,222,92)" stroke-width="1" opacity="1" d="M 347.5 336 L 349 343 L 347 342.5 L 347.5 336 Z " /><path fill="rgb(253,222,92)" stroke="rgb(253,222,92)" stroke-width="1" opacity="1" d="M 94.5 337 L 95 341.5 L 93 342.5 L 94.5 337 Z " /><path fill="rgb(253,222,92)" stroke="rgb(253,222,92)" stroke-width="1" opacity="1" d="M 216.5 345 L 220 345.5 L 185.5 363 L 185 361 L 216.5 345 Z " /><path fill="rgb(253,222,92)" stroke="rgb(253,222,92)" stroke-width="1" opacity="1" d="M 222.5 345 L 225.5 345 L 234 350.5 L 232.5 350 L 222.5 346 L 222.5 345 Z " /><path fill="rgb(253,222,92)" stroke="rgb(253,222,92)" stroke-width="1" opacity="1" d="M 349.5 347 L 351 353.5 L 349 352.5 L 349.5 347 Z " /><path fill="rgb(253,222,92)" stroke="rgb(253,222,92)" stroke-width="1" opacity="1" d="M 92.5 348 L 93 355 Q 90.3 356.1 91 353.5 L 92.5 348 Z " /><path fill="rgb(253,222,92)" stroke="rgb(253,222,92)" stroke-width="1" opacity="1" d="M 235.5 351 L 250 357 L 250 359 L 254 359 L 254 361 Q 257.7 359.5 257 362.5 L 255.5 362 L 236.5 353 L 235.5 351 Z " /><path fill="rgb(253,222,92)" stroke="rgb(253,222,92)" stroke-width="1" opacity="1" d="M 351.5 359 L 353 366.5 L 351 365.5 L 351.5 359 Z " /><path fill="rgb(253,222,92)" stroke="rgb(253,222,92)" stroke-width="1" opacity="1" d="M 90.5 360 L 91 364.5 L 89.5 367 L 89 364.5 L 90.5 360 Z " /><path fill="rgb(253,222,92)" stroke="rgb(253,222,92)" stroke-width="1" opacity="1" d="M 182.5 363 L 184 363.5 L 181.5 365 L 182.5 363 Z " /><path fill="rgb(253,222,92)" stroke="rgb(253,222,92)" stroke-width="1" opacity="1" d="M 258.5 363 L 261 364.5 L 259.5 365 L 258.5 363 Z " /><path fill="rgb(253,222,92)" stroke="rgb(253,222,92)" stroke-width="1" opacity="1" d="M 178.5 365 L 180 365.5 L 146.5 383 L 147.5 381 L 157 377 L 157 375 Q 162.3 376.3 161.5 373 L 164.5 373 L 170.5 369 L 173 369 Q 171.7 365.7 176.5 367 L 178.5 365 Z " /><path fill="rgb(253,222,92)" stroke="rgb(253,222,92)" stroke-width="1" opacity="1" d="M 262.5 365 Q 266.3 364 265 367 L 262.5 365 Z " /><path fill="rgb(253,222,92)" stroke="rgb(253,222,92)" stroke-width="1" opacity="1" d="M 266.5 367 L 293.5 381 L 296 381 Q 297.1 383.7 294.5 383 L 267.5 369 L 266.5 367 Z " /><path fill="rgb(253,222,92)" stroke="rgb(253,222,92)" stroke-width="1" opacity="1" d="M 353.5 370 L 355 376.5 L 353 375.5 L 353.5 370 Z " /><path fill="rgb(253,222,92)" stroke="rgb(253,222,92)" stroke-width="1" opacity="1" d="M 88.5 371 L 89 377.5 L 87 378.5 L 88.5 371 Z " /><path fill="rgb(253,222,92)" stroke="rgb(253,222,92)" stroke-width="1" opacity="1" d="M 86.5 382 L 87 387.5 L 85 388.5 L 86.5 382 Z " /><path fill="rgb(253,222,92)" stroke="rgb(253,222,92)" stroke-width="1" opacity="1" d="M 355.5 382 L 357 389 L 355 388.5 L 355.5 382 Z " /><path fill="rgb(253,222,92)" stroke="rgb(253,222,92)" stroke-width="1" opacity="1" d="M 143.5 383 L 145 383.5 L 142.5 385 L 143.5 383 Z " /><path fill="rgb(253,222,92)" stroke="rgb(253,222,92)" stroke-width="1" opacity="1" d="M 297.5 383 L 304 386.5 L 302.5 386 L 297.5 384 L 297.5 383 Z " /><path fill="rgb(253,222,92)" stroke="rgb(253,222,92)" stroke-width="1" opacity="1" d="M 138 385 L 141 385.5 L 134.5 389 L 135.5 387 Q 139.3 388 138 385 Z " /><path fill="rgb(253,222,92)" stroke="rgb(253,222,92)" stroke-width="1" opacity="1" d="M 305.5 387 L 312 390.5 L 310.5 391 L 306.5 389 L 305.5 387 Z " /><path fill="rgb(253,222,92)" stroke="rgb(253,222,92)" stroke-width="1" opacity="1" d="M 131.5 389 L 133 389.5 L 130.5 391 L 131.5 389 Z " /><path fill="rgb(253,222,92)" stroke="rgb(253,222,92)" stroke-width="1" opacity="1" d="M 127.5 391 L 129 391.5 L 126.5 393 L 127.5 391 Z " /><path fill="rgb(253,222,92)" stroke="rgb(253,222,92)" stroke-width="1" opacity="1" d="M 313.5 391 L 327 397 L 326.5 399 L 314.5 393 L 313.5 391 Z " /><path fill="rgb(253,222,92)" stroke="rgb(253,222,92)" stroke-width="1" opacity="1" d="M 123.5 393 L 125 393.5 L 122.5 395 L 123.5 393 Z " /><path fill="rgb(253,222,92)" stroke="rgb(253,222,92)" stroke-width="1" opacity="1" d="M 119.5 395 L 121 395.5 L 115.5 399 L 116.5 397 L 119.5 395 Z " /><path fill="rgb(253,222,92)" stroke="rgb(253,222,92)" stroke-width="1" opacity="1" d="M 85 398 Q 88 396.8 87 400.5 L 85 399.5 L 85 398 Z " /><path fill="rgb(253,222,92)" stroke="rgb(253,222,92)" stroke-width="1" opacity="1" d="M 356.5 398 L 357 399.5 L 355 400.5 L 356.5 398 Z " /><path fill="rgb(253,222,92)" stroke="rgb(253,222,92)" stroke-width="1" opacity="1" d="M 111 399 L 114 399.5 L 111.5 401 L 111 399 Z " /><path fill="rgb(253,222,92)" stroke="rgb(253,222,92)" stroke-width="1" opacity="1" d="M 328.5 399 L 331 400.5 L 329.5 401 L 328.5 399 Z " /><path fill="rgb(253,222,92)" stroke="rgb(253,222,92)" stroke-width="1" opacity="1" d="M 108.5 401 L 110 401.5 L 103 405 Q 101.7 401.7 106.5 403 L 108.5 401 Z " /><path fill="rgb(253,222,92)" stroke="rgb(253,222,92)" stroke-width="1" opacity="1" d="M 332.5 401 Q 336.3 400 335 403 L 332.5 401 Z " /><path fill="rgb(253,222,92)" stroke="rgb(253,222,92)" stroke-width="1" opacity="1" d="M 87.5 402 L 95 406.5 L 93.5 407 Q 88.5 405.5 87.5 402 Z " /><path fill="rgb(253,222,92)" stroke="rgb(253,222,92)" stroke-width="1" opacity="1" d="M 354.5 402 L 352.5 405 L 348.5 407 L 349.5 405 L 354.5 402 Z " /><path fill="rgb(253,222,92)" stroke="rgb(253,222,92)" stroke-width="1" opacity="1" d="M 336.5 403 L 343 406.5 L 341.5 407 Q 336.9 405.8 336.5 403 Z " /><path fill="rgb(253,222,92)" stroke="rgb(253,222,92)" stroke-width="1" opacity="1" d="M 99 405 L 102 405.5 L 99 407 L 99 405 Z " /><path fill="rgb(253,222,88)" stroke="rgb(253,222,88)" stroke-width="1" opacity="1" d="M 196 49 L 199 49.5 L 196 51 L 196 49 Z " /><path fill="rgb(253,222,88)" stroke="rgb(253,222,88)" stroke-width="1" opacity="1" d="M 340.5 140 L 343 140.5 Q 340.9 143.8 340.5 140 Z " /><path fill="rgb(253,222,88)" stroke="rgb(253,222,88)" stroke-width="1" opacity="1" d="M 404 152 Q 407 151 406 154 Q 403 155 404 152 Z " /><path fill="rgb(253,222,88)" stroke="rgb(253,222,88)" stroke-width="1" opacity="1" d="M 402 186 Q 405 185 404 188 Q 401 189 402 186 Z " /><path fill="rgb(253,222,88)" stroke="rgb(253,222,88)" stroke-width="1" opacity="1" d="M 355.5 240 L 354.5 242 L 355.5 240 Z " /><path fill="rgb(253,222,88)" stroke="rgb(253,222,88)" stroke-width="1" opacity="1" d="M 97 243 Q 100 242 99 245 Q 96 246 97 243 Z " /><path fill="rgb(253,222,88)" stroke="rgb(253,222,88)" stroke-width="1" opacity="1" d="M 336.5 299 L 337.5 301 Q 334.7 301.7 336.5 299 Z " /><path fill="rgb(253,222,88)" stroke="rgb(253,222,88)" stroke-width="1" opacity="1" d="M 94.5 347 L 95.5 349 L 94.5 347 Z " /><path fill="rgb(253,222,88)" stroke="rgb(253,222,88)" stroke-width="1" opacity="1" d="M 344 348 Q 347 347 346 350 Q 343 351 344 348 Z " /><path fill="rgb(253,222,88)" stroke="rgb(253,222,88)" stroke-width="1" opacity="1" d="M 252.5 354 Q 254.8 353.3 254 355.5 L 252.5 354 Z " /><path fill="rgb(253,222,88)" stroke="rgb(253,222,88)" stroke-width="1" opacity="1" d="M 353.5 385 L 352.5 387 L 353.5 385 Z " /><path fill="rgb(253,222,88)" stroke="rgb(253,222,88)" stroke-width="1" opacity="1" d="M 87.5 390 L 86.5 392 L 87.5 390 Z " /><path fill="rgb(254,254,242)" stroke="rgb(254,254,242)" stroke-width="1" opacity="1" d="M 216.5 3 Q 230.3 1.2 234 9.5 L 293 127 L 299.5 129 L 307.5 129 L 314.5 131 L 321.5 131 L 328.5 133 L 335.5 133 L 342.5 135 L 349.5 135 L 356.5 137 L 364.5 137 L 370.5 139 L 378.5 139 L 384.5 141 L 391.5 141 L 398.5 143 L 425.5 146 L 436 152.5 L 439 159.5 L 439 165.5 L 436 172.5 L 416.5 192 L 339 265.5 L 341 271.5 L 341 277.5 L 345 294.5 L 345 300.5 L 347 305.5 L 347 312.5 L 349 317.5 L 349 323.5 L 353 340.5 L 353 346.5 L 355 351.5 L 357 368.5 L 359 373.5 L 359 380.5 L 362 395.5 L 359 404.5 L 355.5 408 Q 351 412.5 340.5 411 L 225.5 351 L 219.5 350 L 101.5 411 L 92.5 411 Q 86 409.5 83 404.5 L 80 393.5 L 103 265.5 L 6 172.5 Q 2.1 168.4 3 159.5 L 9.5 149 L 12.5 147 L 21.5 145 L 29.5 145 L 36.5 143 L 42.5 143 L 64.5 139 L 71.5 139 L 78.5 137 L 85.5 137 L 92.5 135 L 119.5 132 L 120.5 131 L 142.5 129 L 149 127 L 205 14.5 L 212.5 5 L 216.5 3 Z M 217 4 L 210 8 L 151 126 L 148 129 L 143 130 L 121 132 L 120 133 L 93 136 L 86 138 L 79 138 L 72 140 L 65 140 L 58 142 L 51 142 L 44 144 L 37 144 L 30 146 L 23 146 L 12 149 Q 6 153 4 160 L 5 169 L 12 178 L 14 178 L 31 194 L 32 197 L 35 198 L 36 201 L 71 232 L 72 235 L 75 236 L 76 239 L 79 240 L 82 245 L 91 251 L 104 266 L 81 394 Q 82 402 85 406 L 93 410 L 102 410 L 219 349 L 224 349 L 252 363 L 341 410 Q 350 412 354 408 Q 360 404 361 396 L 358 381 L 358 375 L 356 370 L 356 364 L 354 358 L 354 352 L 352 347 L 352 341 L 348 324 L 348 318 L 346 313 L 344 295 L 342 290 L 342 284 L 338 267 L 339 264 L 363 242 L 366 238 L 369 236 L 370 234 L 389 216 Q 391 217 390 214 L 392 214 L 407 200 Q 406 197 409 198 L 410 196 L 431 176 L 432 176 L 438 166 L 438 160 L 436 155 Q 432 149 426 147 L 295 129 L 291 126 L 232 8 L 226 4 L 217 4 Z " /><path fill="rgb(255,222,89)" stroke="rgb(255,222,89)" stroke-width="1" opacity="1" d="M 219.5 7 L 227 9 Q 225.9 11.7 228.5 11 L 235 21.5 L 235 25 Q 238 23.8 237 27.5 L 259 69.5 L 258 70.5 L 261 73.5 L 267 87.5 L 271 92.5 L 271 95.5 L 275 100.5 L 275 103.5 L 281 112.5 L 281 116 Q 284.3 114.7 283 119.5 L 289 129.5 L 288.5 131 L 292.5 133 L 302.5 133 L 303.5 134 L 305 133.5 Q 304.2 136.1 307.5 135 L 311.5 135 Q 318.8 133.3 320.5 137 L 331.5 137 L 333.5 139 L 346.5 139 L 348.5 141 L 360.5 141 L 362.5 143 L 374.5 143 L 376.5 145 L 388.5 145 L 390.5 147 L 399.5 147 L 400.5 148 L 402.5 147 L 404.5 149 L 416.5 149 L 418.5 151 L 427 151 Q 425.8 154 429.5 153 Q 434 156 434 163.5 L 431 171 L 429 171 L 429 173 L 427 173 L 427 175 Q 424.3 173.9 425 176.5 L 421 179 L 418.5 183 Q 415.9 182.3 417 185 L 415 185 L 415 187 L 412 187 L 412 188.5 L 407 192.5 L 405.5 195 L 402 196.5 Q 404.3 197.8 401.5 199 L 399 200.5 L 397.5 203 L 396 202.5 L 394.5 206 L 389 209 L 389 211 L 387 211 L 387 213 L 385 213 L 385 215 L 383 215 L 383 217 L 381 217 L 381 219 L 379 219 L 379 221 L 377 221 L 377 223 L 375 223 L 375 225 L 373 225 Q 374.1 227.7 371.5 227 L 367 230.5 L 365.5 233 L 363 234.5 L 361.5 237 L 359 238.5 L 357.5 241 L 355 242.5 L 353.5 245 L 351 245 L 351 247 L 349 247 L 349 249 L 347 249 L 347 251 L 345 251 L 345 253 L 343 253 L 343 255 L 341 255 L 341 257 L 337 259 L 337 261 L 335 261 L 335 273.5 L 337 275.5 L 337 285.5 Q 340 286.5 339 291.5 L 339 293.5 Q 338 298.5 341 297.5 L 341 307.5 L 343 309.5 L 343 319.5 L 345 321.5 L 345 332 Q 348.7 330.6 347 336.5 L 347 338.5 L 347 342.5 L 349 346.5 L 349 348.5 Q 348 353.5 351 354.5 L 351 365.5 L 353 367.5 L 353 375.5 L 355 377.5 L 355 379.5 L 354 383.5 L 355 389 L 357 389.5 L 357 397.5 L 353.5 403 L 347.5 407 L 343.5 407 L 337.5 403 L 335 403 Q 336.3 399.7 331.5 401 Q 330.4 398.3 327 399 Q 328.1 396.3 325.5 397 L 322 395 L 321.5 393 L 320.5 395 L 311 389.5 L 310.5 388 L 308.5 388 Q 306.3 388.8 307 386.5 L 305.5 387 L 299.5 383 L 296 383 Q 297.1 380.3 294.5 381 L 292 380 L 291.5 378 L 289 379 Q 290.3 375.7 285.5 377 L 267.5 367 L 265 367 L 263.5 364 L 261.5 365 Q 260.4 362.3 257 363 Q 258.1 359.7 254 361 L 254 359 L 250 359 Q 251.3 356 247.5 357 L 225.5 345 L 216.5 345 L 210.5 349 L 209.5 348 L 206.5 351 L 185 361 Q 186.3 364 182.5 363 L 176.5 367 L 173 367 Q 174.3 370 170.5 369 L 164.5 373 L 161 373 L 161 375 L 157 375 Q 158.3 378 154.5 377 L 141.5 385 L 138 385 Q 139.3 388 135.5 387 L 119.5 395 L 114.5 399 L 111 399 Q 112.3 402 108.5 401 L 104.5 403 Q 101.9 402.3 103 405 L 99 405 L 99 407 L 95.5 407 L 87 401.5 L 86.5 397 L 85 397.5 L 85 389.5 L 87 387.5 Q 85 379.5 89 377.5 L 89 367.5 L 91 364.5 Q 89.8 359.8 92 358.5 L 91 355 L 93 354.5 L 93 343.5 L 96 337.5 L 95 333.5 L 97 331.5 L 97 321.5 L 99 319.5 L 99 311.5 L 100 310.5 Q 97.8 309.3 100.5 308 L 102 307.5 Q 99.2 305.7 101 299.5 L 103 297.5 L 103 286 L 105 285.5 L 105 275.5 L 107 273.5 L 107 261 L 105 261 L 105 259 L 103 259 Q 104.1 256.3 101.5 257 L 99 253 L 93 248.5 Q 93.8 246.3 91.5 247 L 85 241.5 L 82.5 238 L 79 235.5 L 76.5 232 L 74 230.5 Q 74.8 228.3 72.5 229 L 69.5 225 L 67 225 L 67 223 L 65 223 L 65 221 L 63 221 L 63 219 L 61 219 L 61 217 L 59 217 L 59 215 L 57 215 L 57 213 L 55 213 L 55 211 L 53 211 L 53 209 L 51 209 Q 52.1 206.3 49.5 207 L 46 205 L 46 203.5 L 37.5 195 L 34 192.5 Q 34.8 190.3 32.5 191 L 29.5 187 L 27 187 L 27 185 L 25 185 L 25 183 L 23 183 L 23 181 L 21 181 L 21 179 L 19 179 L 19 177 L 17 177 L 17 175 L 15 175 Q 16.1 172.3 13.5 173 L 11 169 Q 7.3 170.3 9 164.5 L 8 162.5 L 9 157 L 12 156.5 L 11 155.5 L 15.5 151 L 23.5 151 Q 25 147.5 31.5 149 L 33.5 149 Q 38.5 150 39.5 147 L 51.5 147 L 53.5 145 L 65.5 145 L 67.5 143 L 78.5 143 L 80 143.5 L 81.5 141 L 93.5 141 L 97.5 139 L 99.5 139 Q 107.5 141 109.5 137 L 121.5 137 L 123.5 135 L 138 135 L 138.5 133 L 147.5 133 L 148.5 134 L 151.5 131 Q 153.8 131.8 153 129.5 L 160 118.5 L 159 116.5 L 164 110.5 L 163 108.5 L 167 103.5 L 167 100 Q 170 101.3 169 97.5 L 182.5 72 L 184 71.5 L 183 69.5 L 203 29.5 L 208 22.5 Q 205.5 21 209 19.5 L 211 13 L 213 13 L 215 9 L 217.5 9 L 219.5 7 Z M 196 49 L 196 51 L 199 50 L 196 49 Z M 404 152 Q 403 155 406 154 Q 407 151 404 152 Z M 402 186 Q 401 189 404 188 Q 405 185 402 186 Z M 97 243 Q 96 246 99 245 Q 100 242 97 243 Z M 337 299 Q 335 302 338 301 L 337 299 Z M 344 348 Q 343 351 346 350 Q 347 347 344 348 Z M 253 354 L 254 356 Q 255 353 253 354 Z " /><path fill="rgb(239,222,140)" stroke="rgb(239,222,140)" stroke-width="1" opacity="1" d="M 217.5 5 L 225.5 5 L 233 11.5 L 291 127.5 L 293.5 130 L 306.5 131 L 307.5 132 L 313.5 132 L 314.5 133 L 320.5 133 L 321.5 134 L 327.5 134 L 328.5 135 L 334.5 135 L 335.5 136 L 341.5 136 L 342.5 137 L 348.5 137 L 349.5 138 L 355.5 138 L 356.5 139 L 362.5 139 L 363.5 140 L 369.5 140 L 370.5 141 L 376.5 141 L 377.5 142 L 383.5 142 L 412.5 147 L 418.5 147 L 419.5 148 L 425.5 148 L 434 153.5 L 437 160.5 L 437 164.5 L 434 171.5 L 415.5 190 L 337 264.5 L 360 395.5 Q 358.8 403.3 353.5 407 Q 349.8 410.3 341.5 409 L 220.5 347 L 100.5 409 L 92.5 409 L 85 403.5 L 82 393.5 L 105 264.5 L 7 170.5 L 5 160.5 Q 6.6 153.6 11.5 150 L 16.5 148 L 22.5 148 L 23.5 147 L 29.5 147 L 30.5 146 L 36.5 146 L 37.5 145 L 43.5 145 L 44.5 144 L 50.5 144 L 51.5 143 L 57.5 143 L 58.5 142 L 64.5 142 L 65.5 141 L 71.5 141 L 72.5 140 L 78.5 140 L 79.5 139 L 85.5 139 L 86.5 138 L 120.5 134 L 121.5 133 L 127.5 133 L 128.5 132 L 142.5 131 Q 143.8 128.8 148.5 130 L 151 127.5 L 209 11.5 L 214.5 6 L 217.5 5 Z M 218 6 L 214 8 L 210 12 L 152 128 L 149 131 L 59 143 L 58 144 L 52 144 L 51 145 L 45 145 L 44 146 L 38 146 L 37 147 L 31 147 L 30 148 L 24 148 L 14 150 L 10 152 L 6 161 L 8 171 L 106 265 L 83 395 L 86 404 L 93 408 L 101 408 L 221 346 L 342 408 Q 350 409 354 406 L 356 404 L 359 396 L 336 265 L 417 188 L 432 173 L 436 165 Q 436 156 432 152 L 426 149 L 420 149 L 419 148 L 413 148 L 384 143 L 378 143 L 377 142 L 371 142 L 370 141 L 364 141 L 363 140 L 357 140 L 356 139 L 350 139 L 349 138 L 343 138 L 342 137 L 336 137 L 335 136 L 329 136 L 328 135 L 322 135 L 321 134 L 315 134 L 314 133 L 308 133 L 307 132 L 294 131 L 290 128 L 232 12 L 226 6 L 218 6 Z " /><path fill="rgb(255,255,255)" stroke="rgb(255,255,255)" stroke-width="1" opacity="1" d="M 0 0 L 208.5 0 L 209.5 1 L 210.5 0 L 226 0 Q 225 3 228 2 Q 227 -1 230 0 Q 228.9 2.7 231.5 2 L 231.5 0 L 442 0 L 442 152 Q 438.3 150.8 440 156 L 442 156.5 L 439 157 Q 440 154 437 155 L 437 151 L 435 151 L 433 147 L 429.5 147 L 427.5 145 L 417.5 145 L 416.5 144 Q 415 146.5 413.5 143 L 401.5 143 L 399.5 141 L 389 140.5 L 389.5 139 L 387.5 140 L 383 139 L 381.5 136 L 381 139 L 373.5 139 L 368 135.5 Q 369.3 130.7 366 132 L 367 136.5 L 360.5 137 L 357.5 135 L 345.5 135 L 343.5 133 L 333 133 L 332.5 131 L 330.5 132 L 319.5 130 L 317.5 131 L 314.5 128 L 311.5 129 L 301.5 129 Q 302.5 125.5 295.5 127 L 295.5 125 Q 291.8 126.3 293 122.5 L 291 120.5 L 290 114 L 287 112.5 L 285 108.5 L 286 106.5 L 283 105 L 283 102.5 L 273 82.5 L 274 80 L 271.5 81 L 269 74.5 L 270 72 L 267.5 73 L 265 68.5 L 265 65.5 L 261 60.5 L 257 51 Q 253.3 52.4 255 46.5 L 256 44 Q 253 42.8 254 46.5 L 253 46.5 L 253 43 L 251 43 L 251 39 L 249 39 L 249 35 L 247 35 L 247 31 L 245 31 L 245 27 Q 242 28.3 243 24.5 L 239 18.5 L 239 15 L 237 15 L 237 11 L 235.5 11 L 236 9.5 L 234.5 7 L 233 6.5 L 235 5.5 L 230.5 3 L 219.5 3 L 218.5 2 L 216.5 3 L 214.5 2 L 210 4 L 205 11.5 L 205 15 L 203 15 L 203 18.5 Q 199.8 17.7 201 23 L 197 25 L 197 31 L 195 31 L 195 35 Q 192.3 33.9 193 36.5 L 191.5 36 Q 189.3 35.3 190 37.5 L 191 43 L 189 43 Q 190.3 48.3 187 47.5 L 187 50.5 Q 184.3 51.6 185 55 L 183 55 L 183 59 L 181 59 L 181 63 Q 178.3 61.9 179 64.5 L 172 75.5 Q 174.3 76.8 171.5 78 L 170 78.5 L 171 80.5 L 151 120 L 149 120.5 L 149 122.5 Q 149.5 126.5 146.5 127 L 144.5 127 Q 139.5 126 140.5 129 L 126.5 129 L 124 128 L 125 130.5 L 122.5 131 L 120.5 131 Q 112.5 129 110.5 133 L 96 133 Q 97.2 136.7 92 135 Q 93.2 131.3 88 133 Q 89.3 136 85.5 135 Q 83.5 138 77.5 137 L 75.5 137 L 73.5 136 L 68.5 139 L 62.5 139 L 60.5 138 L 55 139 L 54.5 141 L 53.5 139 L 53 141 L 42.5 141 L 40.5 143 L 28.5 143 Q 27.8 145.8 23.5 145 L 20.5 144 Q 19.3 146.3 14.5 145 L 7 149 Q 8 152 5 151 L 5 155 L 3 155 L 3 159.5 L 3 161.5 Q 4.1 164.8 1.5 164 L 3 166.5 L 2 172 L 4.5 171 Q 4.3 175.7 7.5 177 L 10 178.5 L 10.5 181 Q 11.8 178.8 13 181.5 Q 11.5 185.9 14.5 185 L 16 184.5 L 17.5 187 L 22.5 191 L 25 191 L 25.5 194 Q 27.3 191.3 29 195.5 L 35 202.5 L 39 205 L 39 207 L 41 207 L 41 209 L 43 209 Q 41.9 211.7 44.5 211 Q 48.8 212.8 46 214.5 Q 45.3 216.8 47.5 216 Q 48.8 213.8 50 216.5 Q 49.3 218.8 51.5 218 L 54 222 L 61 227.5 L 63.5 231 L 69 233 L 69 235 L 71 235 L 71 237 L 73 237 L 73 239 L 75 239 L 75 241 L 77 241 L 77 243 L 79 243 L 79 245 L 81 245 Q 79.9 247.7 82.5 247 L 82.5 248 L 81 248.5 L 87 251 L 89.5 256 L 91 255.5 Q 89.3 260.3 93.5 259 L 101 265.5 L 100.5 277 L 99 276.5 L 98.5 281 L 97 280.5 L 99 286 L 97 286.5 L 97 288.5 L 97 298.5 L 95 300.5 L 94 309.5 L 94.5 311 L 93 311.5 L 93 320.5 L 90.5 324 L 89 323.5 L 89 325 L 91 325.5 L 91 332.5 L 88 337.5 L 89 338.5 L 89 345 L 87 345.5 L 87 356.5 L 85 356.5 L 85 359.5 L 82 364 L 84.5 363 L 85 366.5 L 83 368.5 L 83 376.5 L 82 377.5 L 82.5 379 L 81 379.5 L 81 390.5 Q 77.8 391.7 79 397.5 Q 82.2 398.8 81 404.5 L 83.5 407 L 85 407.5 L 82 408.5 L 84.5 411 Q 86.5 407 88.5 411 L 104.5 411 Q 105.6 408.3 109 409 L 109 407 L 113 407 Q 111.8 404 115.5 405 Q 116.8 402 121 403 Q 119.8 400 123.5 401 L 126.5 399 L 128 399.5 L 129.5 397 L 155 385 L 155 383 L 159 383 L 159 381 L 163 381 Q 162 378 165 379 L 165.5 381 L 166 379 L 169 379 L 171 375 L 174 375 L 174.5 377 L 175 373 L 179 373 L 179 371.5 L 180 371.5 Q 179 375.3 182 374 L 183 369 Q 186 367.8 185 371.5 L 187 370.5 Q 185.5 366.1 188.5 367 L 190 367.5 L 191.5 365 L 206 359 Q 204.7 355.7 209.5 357 L 216.5 353 L 218 353.5 L 219.5 351 Q 223.3 350.3 224 352.5 Q 220.3 354.3 223.5 356 L 225 353 L 240.5 361 L 243 361 L 244.5 364 L 247 363 Q 245.7 366.3 250.5 365 Q 251.6 367.7 255 367 Q 253.9 369.7 256.5 369 L 259 369.5 L 259 371 L 263 371 L 263 373 L 267 373 L 267 375.5 L 268.5 375 Q 272.3 374 271 377 L 274.5 377 L 274.5 379 L 279 379 L 281 383 L 285.5 383 L 298 390.5 L 298.5 392 L 300.5 391 L 306 395.5 L 306.5 397 Q 308.3 393.3 310 396.5 L 309 399 L 312 398.5 L 311.5 397 Q 314.1 396.3 313 399 L 315.5 399 L 321 401 Q 319.7 404.3 324.5 403 L 324 404.5 L 324.5 407 Q 325.6 404.3 329 405 L 329 407 L 333 407 L 333 409 Q 338.2 407.3 337 411 L 341.5 411 L 343.5 411 L 353.5 411 Q 354.6 408.3 358 409 L 363 397 L 365 396.5 L 363 396 L 363 391 Q 360 392 361 389 Q 364 390 363 387 L 361 387 L 361 379.5 L 359 379 L 359 376.5 L 360 374.5 Q 357.8 373.2 359 368.5 L 357 366.5 L 359.5 365 L 362 366 L 359.5 362 Q 357.3 361.3 358 363.5 L 357 363.5 L 357 356.5 Q 353.8 357.5 355 351.5 L 356.5 352 Q 358.8 352.8 358 350.5 L 354.5 345 L 353 344.5 L 353 333.5 L 351 331.5 L 351 322.5 Q 348 321.5 349 316.5 L 349 314.5 L 350 310 L 347 309.5 L 347 300.5 L 345 298.5 L 345 288.5 L 343 286.5 L 343 277 Q 346 278 345 275 L 341 275 L 341 268.5 L 341 266.5 L 343.5 262 Q 346.8 263.1 346 260.5 L 350 258 L 351.5 255 Q 353.8 255.8 353 253.5 Q 354.7 249.3 356.5 252 Q 358.8 252.8 358 250.5 L 357.5 249 L 360 250.5 L 359 247 L 361 247 L 361 245 L 363 245 Q 361.9 242.3 364.5 243 L 367 239 L 369 239 L 369 237 L 371 237 L 371 235 L 373 235 L 375 231 L 377.5 231 L 385 225 L 391.5 216 L 396.5 213 L 398 213.5 L 397 211.5 L 399 211 L 399 209 L 401 209 L 401 207 Q 403.7 208.1 403 205.5 L 404.5 206 L 406 205.5 L 405 203 L 407 203 L 407 201 L 409 201 L 409 199 L 411 199 L 411 197 L 413 197 L 415 193 L 417.5 193 L 427 185 L 429.5 181 Q 431.8 181.8 431 179.5 L 436.5 175 L 438.5 176 L 437.5 171 Q 440.3 171.6 439 165.5 L 439 163.5 Q 438.3 159.8 440.5 159 L 442 159.5 L 442 165 Q 439 164 440 167 Q 443.3 165.9 442 170 Q 439 169 440 172 L 442 172.5 L 442 414 L 365.5 414 Q 366.1 411.3 363 412 L 362.5 414 L 345.5 414 L 343.5 414 L 104.5 414 L 103.5 413 L 99.5 414 L 97.5 413 L 96.5 414 L 0 414 L 0.5 168 L 2 168.5 L 2 166 L 0 165.5 L 0 0 Z M 205 3 Q 204 6 207 5 Q 208 2 205 3 Z M 199 17 Q 198 20 201 19 Q 202 16 199 17 Z M 253 21 Q 252 24 255 23 Q 256 20 253 21 Z M 193 23 L 193 25 L 195 26 Q 196 22 193 23 Z M 179 37 Q 178 40 181 39 Q 182 36 179 37 Z M 184 44 Q 183 47 186 46 Q 187 43 184 44 Z M 266 48 Q 265 51 268 50 Q 269 47 266 48 Z M 270 48 Q 269 51 272 50 Q 273 47 270 48 Z M 267 51 Q 265 56 269 55 Q 271 50 267 51 Z M 262 52 Q 261 55 264 54 Q 265 51 262 52 Z M 176 54 Q 175 57 178 56 Q 179 53 176 54 Z M 270 60 Q 269 63 272 62 Q 273 59 270 60 Z M 167 66 L 165 69 L 168 68 Q 169 65 167 66 Z M 173 67 Q 172 70 175 69 Q 176 66 173 67 Z M 160 82 Q 159 85 162 84 Q 163 81 160 82 Z M 277 87 Q 276 90 279 89 Q 280 86 277 87 Z M 286 88 Q 285 91 288 90 Q 289 87 286 88 Z M 278 90 Q 277 93 280 92 Q 281 89 278 90 Z M 284 92 Q 283 95 286 94 Q 287 91 284 92 Z M 156 96 Q 154 101 158 100 Q 160 95 156 96 Z M 282 98 Q 281 101 284 100 Q 285 97 282 98 Z M 155 103 L 155 105 L 157 104 L 155 103 Z M 129 115 Q 128 118 131 117 Q 132 114 129 115 Z M 133 123 Q 132 126 135 125 Q 136 122 133 123 Z M 336 128 Q 335 131 338 130 Q 339 127 336 128 Z M 350 128 Q 349 131 352 130 Q 353 127 350 128 Z M 368 128 Q 367 131 370 130 Q 371 127 368 128 Z M 90 130 Q 89 133 92 132 Q 93 129 90 130 Z M 102 130 Q 101 133 104 132 Q 105 129 102 130 Z M 358 130 Q 357 133 360 132 Q 361 129 358 130 Z M 385 130 Q 383 135 387 134 Q 389 129 385 130 Z M 17 131 Q 16 134 19 133 Q 20 130 17 131 Z M 46 131 L 46 133 L 45 135 L 47 135 L 48 133 L 46 131 Z M 53 131 Q 52 134 55 133 Q 56 130 53 131 Z M 33 132 L 33 137 L 35 137 L 35 132 L 33 132 Z M 76 132 Q 75 135 78 134 Q 79 131 76 132 Z M 392 132 Q 391 135 394 134 Q 395 131 392 132 Z M 64 134 Q 63 137 66 136 Q 67 133 64 134 Z M 398 134 Q 397 138 400 137 Q 401 133 398 134 Z M 50 135 L 48 137 L 51 137 Q 52 134 50 135 Z M 18 137 Q 17 141 22 139 Q 23 135 18 137 Z M 4 144 Q 3 147 6 146 Q 7 143 4 144 Z M 436 146 Q 435 149 438 148 Q 439 145 436 146 Z M 6 180 L 9 187 L 11 186 Q 13 187 12 183 L 6 180 Z M 429 184 L 426 189 Q 425 191 428 190 L 431 186 L 429 184 Z M 3 185 Q 2 188 5 187 Q 6 184 3 185 Z M 28 196 L 26 198 L 28 198 L 28 196 Z M 40 220 Q 39 223 42 222 Q 43 219 40 220 Z M 54 224 Q 53 227 56 226 Q 57 223 54 224 Z M 382 228 Q 380 233 385 232 L 384 231 Q 385 227 382 228 Z M 57 230 L 54 234 L 58 232 Q 59 229 57 230 Z M 376 232 Q 375 235 378 234 Q 379 231 376 232 Z M 52 236 Q 51 239 54 238 Q 55 235 52 236 Z M 69 238 L 67 240 L 70 240 Q 71 237 69 238 Z M 70 242 Q 69 245 72 244 Q 73 241 70 242 Z M 364 254 Q 363 257 366 256 Q 367 253 364 254 Z M 83 257 Q 82 260 85 259 Q 86 256 83 257 Z M 97 269 L 97 271 L 100 271 L 97 269 Z M 86 316 Q 85 319 88 318 Q 89 315 86 316 Z M 89 321 L 88 322 Q 83 321 84 324 Q 88 325 89 323 L 89 321 Z M 82 334 Q 81 337 84 336 Q 85 333 82 334 Z M 82 346 Q 81 349 84 348 Q 85 345 82 346 Z M 81 353 Q 80 356 83 355 Q 84 352 81 353 Z M 210 364 Q 209 368 214 366 Q 215 362 210 364 Z M 364 364 Q 363 368 368 366 Q 369 362 364 364 Z M 238 365 L 236 367 Q 235 369 238 368 L 239 366 L 238 365 Z M 222 366 Q 221 369 224 368 Q 225 365 222 366 Z M 360 370 Q 359 373 362 372 Q 363 369 360 370 Z M 183 375 Q 180 379 184 378 L 183 375 Z M 178 378 Q 177 381 180 380 Q 181 377 178 378 Z M 256 378 Q 255 381 258 380 Q 259 377 256 378 Z M 169 379 Q 168 382 171 381 Q 172 378 169 379 Z M 273 381 Q 272 384 275 383 Q 276 380 273 381 Z M 277 381 Q 276 384 279 383 Q 280 380 277 381 Z M 285 385 Q 284 388 287 387 Q 288 384 285 385 Z M 300 394 Q 299 397 302 396 Q 303 393 300 394 Z M 368 395 L 366 397 Q 365 399 368 398 L 368 395 Z M 131 401 Q 130 404 133 403 Q 134 400 131 401 Z M 326 410 Q 325 413 328 412 Q 329 409 326 410 Z " /><path fill="rgb(254,253,211)" stroke="rgb(254,253,211)" stroke-width="1" opacity="1" d="M 216.5 4 L 225.5 4 L 232 8 L 291 125.5 L 294.5 129 L 425.5 147 Q 432.3 149.3 436 154.5 L 438 159.5 L 438 165.5 L 432 176 L 430.5 176 L 410 195.5 L 408.5 198 Q 406.3 197.3 407 199.5 L 391.5 214 L 390 214 Q 391.1 216.7 388.5 216 L 370 233.5 L 368.5 236 L 366 237.5 L 362.5 242 L 339 263.5 L 338 266.5 L 342 283.5 L 342 289.5 L 344 294.5 L 346 312.5 L 348 317.5 L 348 323.5 L 352 340.5 L 352 346.5 L 354 351.5 L 354 357.5 L 356 363.5 L 356 369.5 L 358 374.5 L 358 380.5 L 361 395.5 Q 359.5 404 353.5 408 Q 349.5 411.5 340.5 410 L 251.5 363 L 223.5 349 L 218.5 349 L 101.5 410 L 92.5 410 L 85 406 Q 81.7 401.5 81 393.5 L 104 265.5 L 90.5 251 L 82 245 L 78.5 240 L 76 238.5 L 74.5 236 L 72 234.5 L 70.5 232 L 36 200.5 L 34.5 198 L 32 196.5 L 30.5 194 L 13.5 178 L 12 178 L 5 168.5 L 4 159.5 Q 6.3 152.8 11.5 149 L 22.5 146 L 29.5 146 L 36.5 144 L 43.5 144 L 50.5 142 L 57.5 142 L 64.5 140 L 71.5 140 L 78.5 138 L 85.5 138 L 92.5 136 L 119.5 133 L 120.5 132 L 142.5 130 L 147.5 129 L 151 125.5 L 210 8 L 216.5 4 Z M 218 5 L 215 6 L 209 12 L 151 128 L 149 130 Q 144 129 143 131 L 129 132 L 128 133 L 122 133 L 121 134 L 87 138 L 86 139 L 80 139 L 79 140 L 73 140 L 72 141 L 66 141 L 65 142 L 59 142 L 58 143 L 52 143 L 51 144 L 45 144 L 44 145 L 38 145 L 37 146 L 31 146 L 30 147 L 24 147 L 23 148 L 17 148 L 12 150 Q 7 154 5 161 L 7 171 L 105 265 L 82 394 L 85 404 L 93 409 L 101 409 L 221 347 L 342 409 Q 350 410 354 407 Q 359 403 360 396 L 337 265 L 416 190 L 434 172 L 437 165 L 437 161 L 434 154 L 426 148 L 420 148 L 419 147 L 413 147 L 384 142 L 378 142 L 377 141 L 371 141 L 370 140 L 364 140 L 363 139 L 357 139 L 356 138 L 350 138 L 349 137 L 343 137 L 342 136 L 336 136 L 335 135 L 329 135 L 328 134 L 322 134 L 321 133 L 315 133 L 314 132 L 308 132 L 307 131 L 294 130 L 291 128 L 233 12 L 226 5 L 218 5 Z " /></svg>